<svg width="23" height="16" viewBox="0 0 23 16" fill="none" xmlns="http://www.w3.org/2000/svg">
<rect x="0.5" y="0.5" width="22" height="15" rx="2" fill="#006FCF" stroke="#D9D9D9"/>
<path d="M11.342 1.2915V7.95446V14.6602H16.5558H19.2295L21.7696 12.5212V7.97585V3.4305L19.2295 1.2915H16.5579H11.342Z" fill="white"/>
<path d="M19.3846 4.57218L19.8124 3.40911H21.7696L19.5691 1.2915H11.2083V14.6602H19.5691L21.7696 12.5479H19.9247L19.2429 11.7512L18.5344 12.5479H13.2939V8.30205H11.564L13.727 3.40911H15.8312L16.3393 4.51871V3.40911H18.9515L19.3873 4.57218H19.3846ZM17.9087 5.34222L17.9034 4.87432L18.0825 5.34222L18.9515 7.66303H19.8151L20.6894 5.34222L20.8579 4.87966V7.6657H21.7669V4.1016H20.2563L19.5691 5.91173L19.3873 6.40102L19.2002 5.91173L18.5103 4.1016H16.9997V7.6657H17.9087V5.34489V5.34222ZM15.9516 7.66303H16.9997L15.4302 4.09893H14.2136L12.6361 7.66303H13.6709L13.9463 6.97587H15.6762L15.9516 7.66303ZM14.6334 5.30479L14.8125 4.85827L14.9917 5.30479L15.3607 6.20584H14.2644L14.6334 5.30479ZM14.0238 8.30472V11.8554H16.9997V11.0854H14.9329V10.4651H16.9596V9.69774H14.9329V9.07476H16.9997V8.30472H14.0238ZM20.3124 11.8554H21.4942L19.8285 10.0721L21.4942 8.30205H20.3311L19.2563 9.45711L18.1868 8.30205H17.0023L18.6654 10.0854L17.0023 11.8554H18.152L19.2349 10.6977L20.3124 11.8554ZM20.7616 10.0694L21.7696 11.0934V9.05604L20.7616 10.0667V10.0694Z" fill="#006FCF"/>
</svg>
