<svg width="23" height="16" viewBox="0 0 23 16" fill="none" xmlns="http://www.w3.org/2000/svg">
<rect x="0.5" y="0.5" width="22" height="15" rx="2" fill="white" stroke="#F1F0F3"/>
<g clip-path="url(#clip0_1273_69061)">
<path d="M5.72155 2H10.4638C11.1251 2 11.5378 2.54444 11.3825 3.21658L9.17448 12.7857C9.01915 13.4556 8.35563 14 7.69434 14H2.95211C2.29081 14 1.87806 13.4556 2.0334 12.7857L4.24141 3.21658C4.39453 2.54444 5.05804 2 5.72155 2Z" fill="#ED171F"/>
<path d="M10.0687 2H15.521C16.1823 2 15.885 2.54444 15.7296 3.21658L13.5216 12.7857C13.3663 13.4556 13.4151 14 12.7516 14H7.29924C6.63572 14 6.22519 13.4556 6.38053 12.7857L8.58854 3.21658C8.74388 2.54444 9.40739 2 10.0687 2Z" fill="#082F67"/>
<path d="M15.3058 2H20.048C20.7093 2 21.1221 2.54444 20.9667 3.21658L18.7587 12.7857C18.6034 13.4556 17.9421 14 17.2763 14H12.5363C11.8728 14 11.4623 13.4556 11.6176 12.7857L13.8256 3.21658C13.981 2.54444 14.6423 2 15.3058 2Z" fill="#006A65"/>
<path fill-rule="evenodd" clip-rule="evenodd" d="M14.5136 11.0021H14.9596L15.0883 10.5674H14.6423L14.5136 11.0021ZM14.8708 9.8034L14.7177 10.3165C14.7177 10.3165 14.8864 10.2291 14.9796 10.2022C15.0706 10.1798 15.2104 10.1641 15.2104 10.1641L15.3191 9.80564H14.8731L14.8708 9.8034ZM15.0927 9.06405L14.9441 9.55695C14.9441 9.55695 15.1105 9.48077 15.2015 9.45613C15.2925 9.43148 15.4323 9.42252 15.4323 9.42252L15.5388 9.06405H15.0927ZM16.0825 9.06405L15.5055 10.9953H15.6608L15.541 11.3941H15.3857L15.3502 11.5174H14.7998L14.8375 11.3941H13.7191L13.8323 11.0245H13.9455L14.5313 9.06405L14.6489 8.66748H15.2104L15.1527 8.86688C15.1527 8.86688 15.3013 8.7571 15.4434 8.72125C15.5854 8.68316 16.3976 8.66972 16.3976 8.66972L16.2777 9.0618H16.0847L16.0825 9.06405Z" fill="white"/>
<path d="M16.331 8.67236H16.9302L16.9368 8.89865C16.9324 8.93674 16.9657 8.95466 17.0345 8.95466H17.1565L17.0455 9.32658H16.7216C16.4419 9.34675 16.3354 9.22576 16.3421 9.08909L16.331 8.67236Z" fill="white"/>
<path d="M16.4087 10.4374H15.8384L15.936 10.1058H16.5884L16.6816 9.80336H16.0381L16.149 9.4292H17.9421L17.8289 9.80336H17.2275L17.1343 10.1058H17.7379L17.638 10.4374H16.9856L16.8702 10.5763H17.1343L17.1987 10.9931C17.2053 11.0334 17.2075 11.0603 17.2186 11.0782C17.232 11.0939 17.3118 11.1006 17.3562 11.1006H17.4361L17.3141 11.5061H17.1099C17.0788 11.5061 17.0322 11.5039 16.9679 11.4994C16.9057 11.4949 16.8636 11.4591 16.8214 11.4389C16.7837 11.421 16.7282 11.3739 16.7149 11.2978L16.6505 10.881L16.3554 11.291C16.2622 11.421 16.1335 11.5196 15.9182 11.5196H15.5033L15.612 11.1566H15.7718C15.8184 11.1566 15.8583 11.1387 15.8872 11.123C15.9182 11.1096 15.9449 11.0939 15.9759 11.0491L16.4064 10.4352L16.4087 10.4374Z" fill="white"/>
<path d="M10.1574 9.53027H11.6687L11.5577 9.89547H10.9541L10.8609 10.2047H11.48L11.3669 10.5811H10.7499L10.6013 11.0852C10.5835 11.1412 10.7477 11.1479 10.8076 11.1479L11.1183 11.1053L10.994 11.5221H10.2972C10.2418 11.5221 10.1996 11.5131 10.1397 11.4997C10.082 11.484 10.0554 11.4593 10.0287 11.419C10.0043 11.3787 9.96438 11.3451 9.99101 11.2554L10.1907 10.5878H9.84677L9.95995 10.2047H10.3061L10.3971 9.89547H10.0531L10.1641 9.53027H10.1574Z" fill="white"/>
<path d="M11.176 8.87613H11.7951L11.682 9.25701H10.8343L10.7433 9.33767C10.7033 9.37576 10.69 9.36008 10.639 9.3892C10.5902 9.41385 10.4903 9.4609 10.3594 9.4609H10.0887L10.1996 9.09346H10.2817C10.3505 9.09346 10.3971 9.08674 10.4215 9.07105C10.4481 9.05313 10.4792 9.01504 10.5125 8.95231L10.6678 8.66553H11.2848L11.176 8.87389V8.87613Z" fill="white"/>
<path fill-rule="evenodd" clip-rule="evenodd" d="M12.3655 9.50329C12.3655 9.50329 12.5341 9.34646 12.8248 9.29717C12.8914 9.28373 13.3019 9.28821 13.3019 9.28821L13.3641 9.07984H12.4919L12.3655 9.50329ZM13.1843 9.66237H12.3189L12.2656 9.83937H13.0157C13.1044 9.82816 13.1222 9.83936 13.1288 9.83712L13.1843 9.66237ZM12.0637 8.67432H12.5918L12.5141 8.94317C12.5141 8.94317 12.6806 8.80874 12.7982 8.76169C12.9136 8.71689 13.1777 8.6788 13.1777 8.6788L14.032 8.67432L13.7413 9.6534C13.6925 9.82144 13.6348 9.92898 13.5993 9.97827C13.566 10.0298 13.5283 10.0701 13.455 10.1127C13.384 10.1508 13.3175 10.1732 13.2575 10.1799C13.1998 10.1844 13.1133 10.1866 12.9935 10.1866H12.1702L11.9372 10.9618C11.915 11.038 11.9039 11.0739 11.9194 11.0963C11.9327 11.1142 11.9594 11.1366 11.9993 11.1366L12.361 11.103L12.2368 11.5287H11.8307C11.7019 11.5287 11.6065 11.5264 11.5422 11.5197C11.48 11.5152 11.4135 11.5197 11.3713 11.4861C11.3336 11.4525 11.2759 11.4077 11.2759 11.3629C11.2803 11.3203 11.2959 11.2509 11.3247 11.1545L12.0637 8.67656V8.67432Z" fill="white"/>
<path d="M13.6015 10.2537L13.5527 10.489C13.5305 10.5629 13.5127 10.6189 13.4573 10.666C13.3996 10.7152 13.3308 10.7668 13.1732 10.7668L12.8803 10.778V11.0446C12.8736 11.1208 12.8936 11.1118 12.9069 11.1253C12.9202 11.1387 12.9313 11.1432 12.9446 11.1477L13.0378 11.1432L13.3174 11.1275L13.2021 11.5151H12.8803C12.6562 11.5151 12.4875 11.5106 12.4342 11.4658C12.381 11.4322 12.3743 11.3874 12.3743 11.3135L12.3943 10.2761H12.9069L12.9003 10.4867H13.0245C13.0667 10.4867 13.0933 10.4822 13.1133 10.471C13.1288 10.4576 13.1399 10.4419 13.1488 10.4173L13.1976 10.2515H13.6015V10.2537Z" fill="white"/>
<path d="M6.28288 5.05811C6.26513 5.141 5.93448 6.67573 5.93448 6.67573C5.86347 6.98492 5.81243 7.20896 5.63712 7.35011C5.53726 7.43301 5.42187 7.47334 5.2865 7.47334C5.07125 7.47334 4.94476 7.3658 4.92257 7.15967L4.91813 7.09022L4.98471 6.67349C4.98471 6.67349 5.33089 5.27543 5.3908 5.09171C5.39302 5.08051 5.39524 5.07603 5.39524 5.07155C4.72285 5.07827 4.60302 5.07155 4.59636 5.06259C4.59192 5.07603 4.57417 5.16341 4.57417 5.16341L4.22133 6.73622L4.19027 6.87065L4.13257 7.30755C4.13257 7.43749 4.15698 7.5428 4.20802 7.63241C4.37001 7.91696 4.82715 7.95952 5.08678 7.95952C5.42187 7.95952 5.73476 7.88783 5.94558 7.75788C6.31395 7.53831 6.40937 7.19552 6.49592 6.89082L6.53586 6.73398C6.53586 6.73398 6.89092 5.28215 6.95305 5.09395C6.95305 5.08275 6.95527 5.07827 6.95749 5.07379C6.46929 5.07827 6.32727 5.07379 6.28066 5.06483" fill="white"/>
<path d="M8.25123 7.9372C8.01156 7.93496 7.92945 7.93496 7.64985 7.9484L7.63875 7.92823C7.66316 7.82069 7.68979 7.71539 7.7142 7.60785L7.74749 7.46222C7.79853 7.23369 7.84957 6.96931 7.85622 6.88865C7.86066 6.83936 7.8762 6.71838 7.74083 6.71838C7.68313 6.71838 7.62322 6.7475 7.56108 6.77439C7.5278 6.89537 7.459 7.23593 7.42794 7.39276C7.35914 7.71987 7.35471 7.75796 7.32364 7.91927L7.30367 7.93944C7.05735 7.9372 6.97302 7.9372 6.68897 7.95064L6.67566 7.92599C6.72226 7.73107 6.77108 7.53615 6.81546 7.34123C6.93308 6.81472 6.96192 6.61307 6.99521 6.34422L7.0174 6.32853C7.29257 6.29045 7.35914 6.28148 7.65872 6.21875L7.68313 6.24788L7.63875 6.41591C7.68979 6.38679 7.73639 6.35542 7.78965 6.32853C7.92946 6.25908 8.08701 6.23891 8.17356 6.23891C8.30448 6.23891 8.44651 6.277 8.50642 6.42936C8.56412 6.56602 8.5264 6.73406 8.45095 7.06341L8.41322 7.23145C8.33555 7.59888 8.32446 7.6661 8.28229 7.91927L8.25344 7.93944L8.25123 7.9372Z" fill="white"/>
<path d="M9.21875 7.93723C9.07451 7.93723 8.98353 7.93499 8.89255 7.93723C8.80378 7.93723 8.71502 7.94171 8.58187 7.94844L8.57299 7.93723L8.56412 7.92603C8.59962 7.78712 8.62181 7.73783 8.63957 7.68854C8.65732 7.63925 8.67507 7.58996 8.70614 7.44881C8.7483 7.26509 8.77271 7.13514 8.79269 7.02312C8.81266 6.91333 8.82153 6.82148 8.83707 6.71393L8.84816 6.70497L8.85926 6.69377C9.00128 6.6736 9.09227 6.66016 9.18547 6.64448C9.27867 6.63103 9.37409 6.61311 9.52055 6.58398L9.52721 6.59743L9.53165 6.61087C9.50502 6.72513 9.47617 6.8394 9.44954 6.9559C9.42291 7.07241 9.39628 7.18443 9.36965 7.2987C9.31639 7.54067 9.2942 7.63253 9.28089 7.69526C9.26979 7.758 9.26536 7.7916 9.24316 7.91707L9.22985 7.92827L9.21654 7.93723H9.21875Z" fill="white"/>
<path d="M10.7388 7.0815C10.7255 7.14424 10.6723 7.37725 10.599 7.47583C10.548 7.54752 10.4881 7.59233 10.4193 7.59233C10.3993 7.59233 10.2817 7.59233 10.2795 7.41534C10.2795 7.32796 10.295 7.23834 10.3172 7.142C10.3793 6.86194 10.4548 6.62669 10.6434 6.62669C10.7921 6.62669 10.801 6.80145 10.7388 7.08375M11.3624 7.11063C11.4467 6.74095 11.3824 6.56619 11.3003 6.46089C11.176 6.30182 10.9563 6.24805 10.7277 6.24805C10.5902 6.24805 10.2662 6.26149 10.011 6.49898C9.829 6.66926 9.74245 6.90227 9.69141 7.12407C9.64037 7.35036 9.58046 7.76037 9.95327 7.91048C10.0687 7.95977 10.2329 7.97322 10.3394 7.97322C10.6123 7.97322 10.8919 7.89704 11.1005 7.67299C11.2625 7.49151 11.338 7.22041 11.3624 7.10839" fill="white"/>
<path d="M17.192 7.96195C16.9035 7.95971 16.8214 7.95971 16.5551 7.97092L16.5374 7.94851C16.6106 7.67293 16.6838 7.39735 16.746 7.11729C16.8303 6.75434 16.8481 6.60198 16.8769 6.38914L16.8991 6.37121C17.1854 6.33089 17.263 6.31744 17.5626 6.26367L17.5715 6.28832C17.516 6.51461 17.4628 6.74313 17.4095 6.97166C17.3008 7.44888 17.2608 7.6931 17.2186 7.94179L17.192 7.96195Z" fill="white"/>
<path d="M16.7593 7.11296C16.746 7.17121 16.6905 7.40646 16.6173 7.50504C16.5684 7.5745 16.453 7.6193 16.3865 7.6193C16.3665 7.6193 16.2511 7.6193 16.2467 7.44455C16.2467 7.35941 16.2644 7.26755 16.2866 7.17121C16.3487 6.89563 16.4242 6.66262 16.6128 6.66262C16.7615 6.66262 16.8259 6.8329 16.7615 7.1152M17.3296 7.14208C17.4139 6.77464 17.0766 7.11072 17.0234 6.98749C16.9412 6.79705 16.9923 6.41393 16.6616 6.28398C16.5352 6.23469 16.2356 6.29966 15.9804 6.53491C15.7984 6.70519 15.7141 6.93372 15.663 7.15553C15.612 7.37957 15.5521 7.78734 15.9227 7.93297C16.0403 7.98226 16.1468 7.99795 16.2533 7.99346C16.6261 7.9733 16.908 7.40646 17.1188 7.18241C17.2808 7.00541 17.3096 7.24963 17.334 7.14208" fill="white"/>
<path d="M12.9912 7.9372C12.7516 7.93496 12.6717 7.93496 12.3899 7.9484L12.3788 7.92823C12.4032 7.82069 12.4298 7.71539 12.4542 7.60785L12.4875 7.46222C12.5385 7.23369 12.5896 6.96931 12.5962 6.88865C12.6007 6.83936 12.6162 6.71838 12.4809 6.71838C12.4209 6.71838 12.3632 6.7475 12.3011 6.77439C12.2678 6.89537 12.199 7.23593 12.1657 7.39276C12.0969 7.71987 12.0925 7.75796 12.0614 7.91927L12.0415 7.93944C11.7951 7.9372 11.7108 7.9372 11.429 7.95064L11.4157 7.92599C11.4623 7.73107 11.5089 7.53615 11.5533 7.34123C11.6709 6.81472 11.6997 6.61307 11.733 6.34422L11.7552 6.32853C12.0304 6.29045 12.0969 6.28148 12.3965 6.21875L12.4209 6.24788L12.3788 6.41591C12.4276 6.38679 12.4786 6.35542 12.5275 6.32853C12.6673 6.25908 12.8248 6.23891 12.9091 6.23891C13.0401 6.23891 13.1821 6.277 13.2442 6.42936C13.2997 6.56602 13.262 6.73406 13.1865 7.06341L13.1488 7.23145C13.0711 7.59888 13.0578 7.6661 13.0179 7.91927L12.989 7.93944L12.9912 7.9372Z" fill="white"/>
<path d="M15.0572 5.0538L14.8597 5.05604C14.3449 5.06276 14.1385 5.05828 14.052 5.04932C14.0431 5.0874 14.0298 5.15462 14.0298 5.15462L13.8456 6.01944C13.8456 6.01944 13.404 7.85664 13.384 7.94401C13.8345 7.93953 14.0187 7.93953 14.0964 7.94625C14.1141 7.85888 14.2184 7.34581 14.2184 7.34581C14.2184 7.34581 14.3072 6.96941 14.3138 6.95596C14.3138 6.95596 14.3405 6.91787 14.3693 6.90219H14.4093C14.7976 6.90219 15.237 6.90219 15.5787 6.64678C15.8117 6.47202 15.9737 6.21437 16.0425 5.9007C16.0625 5.82452 16.0758 5.73042 16.0758 5.6408C16.0758 5.51982 16.0514 5.40107 15.9826 5.30921C15.8073 5.06052 15.4589 5.05828 15.055 5.05604M15.3124 5.95671C15.2703 6.14715 15.1482 6.31071 14.9884 6.38688C14.8575 6.4541 14.6977 6.45858 14.5335 6.45858H14.427L14.4359 6.41601C14.4359 6.41601 14.6334 5.55342 14.6312 5.55566L14.6378 5.51085L14.6423 5.47725L14.7199 5.48621C14.7199 5.48621 15.1238 5.52206 15.1349 5.52206C15.2947 5.58255 15.3613 5.74611 15.3147 5.95671" fill="white"/>
<path d="M19.5487 6.26146L19.5265 6.23682C19.2336 6.29507 19.1781 6.30627 18.9074 6.34212L18.8874 6.36228C18.8874 6.36228 18.8874 6.37125 18.8852 6.37573V6.37125C18.6833 6.84175 18.6877 6.73868 18.5235 7.10836C18.5235 7.09044 18.5235 7.07924 18.5235 7.06355L18.4835 6.2637L18.4569 6.23906C18.1484 6.29731 18.1418 6.30851 17.8555 6.34436L17.8333 6.36452C17.8333 6.36452 17.8311 6.38469 17.8289 6.39589V6.40037C17.8666 6.58409 17.8577 6.54376 17.8933 6.83278C17.911 6.97393 17.931 7.11956 17.9487 7.25847C17.9776 7.49372 17.9931 7.61023 18.0264 7.96871C17.8356 8.28909 17.789 8.41232 17.6048 8.69238L17.6136 8.71703C17.891 8.70582 17.9554 8.70582 18.1618 8.70582L18.2061 8.65429C18.3615 8.31598 19.5465 6.26146 19.5465 6.26146" fill="white"/>
<path d="M9.48062 6.46084C9.63818 6.35106 9.65815 6.19647 9.52501 6.11805C9.38964 6.03739 9.15441 6.06428 8.99686 6.17406C8.83708 6.28385 8.81933 6.4362 8.95248 6.51686C9.08562 6.59527 9.32085 6.57287 9.48062 6.46084Z" fill="white"/>
<path d="M18.1862 8.68095L17.9554 9.082C17.8822 9.21867 17.7468 9.32173 17.5293 9.32173L17.1609 9.31501L17.2675 8.95429H17.3385C17.3762 8.95429 17.4051 8.95205 17.425 8.94085C17.4428 8.93413 17.4561 8.92068 17.4716 8.89828L17.607 8.67871H18.184L18.1862 8.68095Z" fill="white"/>
</g>
<defs>
<clipPath id="clip0_1273_69061">
<rect width="19" height="12" fill="white" transform="translate(2 2)"/>
</clipPath>
</defs>
</svg>
