<svg width="23" height="16" viewBox="0 0 23 16" fill="none" xmlns="http://www.w3.org/2000/svg">
<rect x="0.5" y="0.5" width="22" height="15" rx="2" fill="white" stroke="#F1F0F3"/>
<path fill-rule="evenodd" clip-rule="evenodd" d="M5.25348 8.0544C5.25348 4.82794 7.86901 2.2124 11.0953 2.2124C14.3218 2.2124 16.9373 4.82794 16.9373 8.0544C16.9373 11.2809 14.3218 13.8965 11.0953 13.8965C7.86901 13.8965 5.25348 11.2809 5.25348 8.0544" fill="#FFFFFE"/>
<path fill-rule="evenodd" clip-rule="evenodd" d="M14.6283 7.93875C14.626 6.4427 13.6908 5.1668 12.3732 4.6615V11.2157C13.6908 10.7098 14.626 9.43506 14.6283 7.93875ZM9.85946 11.2145V4.66219C8.54294 5.16905 7.60925 6.44313 7.60573 7.93879C7.60925 9.43405 8.54294 10.708 9.85946 11.2145ZM11.117 2.39889C8.05751 2.40006 5.57881 4.87928 5.57829 7.93875C5.57881 10.9978 8.05751 13.4767 11.117 13.4772C14.1764 13.4767 16.6557 10.9978 16.6564 7.93875C16.6557 4.87928 14.1764 2.40006 11.117 2.39889ZM11.1034 14C7.7555 14.0159 5 11.3036 5 8.00196C5 4.39359 7.7555 1.89778 11.1034 1.89844H12.6723C15.9806 1.89778 19 4.39241 19 8.00196C19 11.3025 15.9806 14 12.6723 14H11.1034Z" fill="#004C97"/>
</svg>
