<svg width="23" height="16" viewBox="0 0 23 16" fill="none" xmlns="http://www.w3.org/2000/svg">
<rect x="0.5" y="0.5" width="22" height="15" rx="2" fill="white" stroke="#F1F0F3"/>
<path d="M2.20862 2.62567V13.5263C2.20862 13.7558 2.39634 13.9435 2.62579 13.9435H14.1981C17.4374 13.9435 20.0656 11.3174 20.0656 8.07599C20.0656 4.83667 17.4395 2.2085 14.1981 2.2085H2.62579C2.39634 2.2085 2.20862 2.39622 2.20862 2.62567Z" fill="white"/>
<path d="M3.62065 6.75537H2.88226V9.33765H3.61857C4.00862 9.33765 4.2923 9.24588 4.54051 9.03938C4.83462 8.79533 5.00983 8.42822 5.00983 8.0486C5.00983 7.28726 4.44039 6.75537 3.62274 6.75537H3.62065ZM4.20886 8.69521C4.05034 8.83705 3.84593 8.89962 3.52053 8.89962H3.38495V7.19131H3.52053C3.84593 7.19131 4.04408 7.24972 4.20886 7.3999C4.38407 7.55425 4.48837 7.79621 4.48837 8.04234C4.48837 8.28847 4.38407 8.53877 4.20886 8.69313V8.69521Z" fill="#261F20"/>
<path d="M5.73993 6.75537H5.23724V9.33765H5.73993V6.75537Z" fill="#261F20"/>
<path d="M6.97267 7.74587C6.67022 7.63324 6.58262 7.56023 6.58262 7.42048C6.58262 7.25779 6.74114 7.13472 6.95807 7.13472C7.10825 7.13472 7.2334 7.1973 7.36481 7.3433L7.62763 6.99914C7.4107 6.80933 7.15206 6.71338 6.86838 6.71338C6.41158 6.71338 6.06324 7.03043 6.06324 7.45385C6.06324 7.81053 6.22594 7.992 6.69943 8.16096C6.8955 8.22979 6.9977 8.27777 7.04776 8.30697C7.14788 8.37163 7.19795 8.46549 7.19795 8.57396C7.19795 8.78254 7.03108 8.93898 6.80581 8.93898C6.56593 8.93898 6.37195 8.818 6.25514 8.59481L5.92975 8.90769C6.16128 9.24768 6.44078 9.39995 6.82458 9.39995C7.34813 9.39995 7.71524 9.05162 7.71524 8.5531C7.71524 8.14219 7.54628 7.95654 6.97267 7.74796V7.74587Z" fill="#261F20"/>
<path d="M7.87378 8.04925C7.87378 8.8085 8.47033 9.39671 9.23584 9.39671C9.45277 9.39671 9.63841 9.35499 9.86785 9.24653V8.65415C9.66552 8.85647 9.48823 8.93782 9.25878 8.93782C8.75192 8.93782 8.39107 8.57071 8.39107 8.04717C8.39107 7.55073 8.76235 7.16068 9.23584 7.16068C9.47571 7.16068 9.65718 7.2462 9.86785 7.45061V6.85823C9.64675 6.7456 9.46528 6.69971 9.24835 6.69971C8.48493 6.69971 7.87378 7.30043 7.87378 8.05134V8.04925Z" fill="#261F20"/>
<path d="M13.8623 8.4908L13.174 6.75537H12.6233L13.7184 9.4044H13.9895L15.1055 6.75537H14.559L13.8623 8.4908Z" fill="#261F20"/>
<path d="M15.3328 9.33765H16.7616V8.90171H15.8375V8.20504H16.7282V7.76701H15.8375V7.1934H16.7616V6.75537H15.3328V9.33765Z" fill="#261F20"/>
<path d="M18.7557 7.51866C18.7557 7.03474 18.4219 6.75732 17.8421 6.75732H17.0953V9.3396H17.598V8.30294H17.6648L18.3614 9.3396H18.9809L18.1675 8.25079C18.5471 8.17362 18.7557 7.91497 18.7557 7.51866ZM17.7461 7.94417H17.598V7.16198H17.7524C18.0653 7.16198 18.2363 7.29339 18.2363 7.54577C18.2363 7.79816 18.0653 7.94417 17.744 7.94417H17.7461Z" fill="#261F20"/>
<path d="M19.1582 6.89074C19.1582 6.84485 19.1269 6.81982 19.0727 6.81982H18.9997V7.04718H19.0539V6.95958L19.1186 7.04718H19.1853L19.1102 6.95332C19.1415 6.94498 19.1603 6.92203 19.1603 6.89074H19.1582ZM19.0623 6.92203H19.0539V6.86154H19.0644C19.0915 6.86154 19.1061 6.87197 19.1061 6.89074C19.1061 6.90951 19.0915 6.92203 19.0644 6.92203H19.0623Z" fill="#261F20"/>
<path d="M19.081 6.73682C18.9704 6.73682 18.8828 6.82442 18.8828 6.93497C18.8828 7.04552 18.9725 7.13313 19.081 7.13313C19.1894 7.13313 19.277 7.04344 19.277 6.93497C19.277 6.82651 19.1894 6.73682 19.081 6.73682ZM19.081 7.09767C18.9934 7.09767 18.9224 7.02466 18.9224 6.93497C18.9224 6.84528 18.9934 6.77228 19.081 6.77228C19.1686 6.77228 19.2374 6.84737 19.2374 6.93497C19.2374 7.02258 19.1665 7.09767 19.081 7.09767Z" fill="#261F20"/>
<path d="M12.7672 8.04507C12.7672 8.80015 12.156 9.41339 11.3988 9.41339C10.6417 9.41339 10.0305 8.80224 10.0305 8.04507C10.0305 7.28791 10.6417 6.67676 11.3988 6.67676C12.156 6.67676 12.7672 7.28791 12.7672 8.04507Z" fill="url(#paint0_linear_1284_69236)"/>
<path style="mix-blend-mode:multiply" opacity="0.65" d="M12.7672 8.04507C12.7672 8.80015 12.156 9.41339 11.3988 9.41339C10.6417 9.41339 10.0305 8.80224 10.0305 8.04507C10.0305 7.28791 10.6417 6.67676 11.3988 6.67676C12.156 6.67676 12.7672 7.28791 12.7672 8.04507Z" fill="url(#paint1_linear_1284_69236)"/>
<g style="mix-blend-mode:multiply" opacity="0.5">
<mask id="mask0_1284_69236" style="mask-type:luminance" maskUnits="userSpaceOnUse" x="10" y="6" width="3" height="4">
<path d="M12.7672 8.04507C12.7672 8.80015 12.1539 9.41339 11.3988 9.41339C10.6438 9.41339 10.0305 8.80224 10.0305 8.04507C10.0305 7.28791 10.6417 6.67676 11.3988 6.67676C12.156 6.67676 12.7672 7.28791 12.7672 8.04507Z" fill="white"/>
</mask>
<g mask="url(#mask0_1284_69236)">
<path d="M11.405 6.65785C12.1747 6.65785 12.8004 7.28152 12.8004 8.05119C12.8004 8.82087 12.1747 9.44663 11.405 9.44663C10.6353 9.44663 10.0096 8.82296 10.0096 8.05119C10.0096 7.28152 10.6333 6.65576 11.405 6.65576V6.65785Z" fill="#020000"/>
<path d="M11.4069 6.65918C12.1766 6.65918 12.8023 7.28076 12.8023 8.05044C12.8023 8.82012 12.1766 9.44796 11.4069 9.44796C10.6372 9.44796 10.0115 8.82429 10.0115 8.05461C10.0115 7.28493 10.6372 6.65918 11.4069 6.65918Z" fill="#030100"/>
<path d="M11.4071 6.66211C12.1768 6.66211 12.8046 7.28369 12.8046 8.05337C12.8046 8.82305 12.1788 9.45089 11.4071 9.45089C10.6353 9.45089 10.0117 8.82722 10.0137 8.05754C10.0137 7.28786 10.6395 6.66211 11.4071 6.6642V6.66211Z" fill="#050100"/>
<path d="M11.4092 6.66407C12.1789 6.66407 12.8067 7.28356 12.8067 8.05324C12.8067 8.82292 12.1789 9.45076 11.4092 9.45076C10.6395 9.45076 10.0138 8.82709 10.0159 8.05741C10.0159 7.28774 10.6416 6.66198 11.4092 6.66407Z" fill="#070200"/>
<path d="M11.4114 6.66553C12.1811 6.66553 12.8089 7.28294 12.8089 8.05262C12.8089 8.8223 12.1811 9.45223 11.4114 9.45223C10.6417 9.45223 10.016 8.82856 10.0181 8.05888C10.0181 7.2892 10.6438 6.66345 11.4114 6.66553Z" fill="#080200"/>
<path d="M11.4134 6.66846C12.1831 6.66846 12.811 7.28587 12.811 8.05555C12.811 8.82523 12.1831 9.45516 11.4134 9.45516C10.6438 9.45516 10.018 8.83149 10.0201 8.06181C10.0201 7.29213 10.6458 6.66638 11.4134 6.66846Z" fill="#0A0300"/>
<path d="M11.4134 6.67042C12.1831 6.67042 12.813 7.28574 12.813 8.05542C12.813 8.8251 12.1831 9.45711 11.4134 9.45711C10.6438 9.45711 10.018 8.83344 10.0201 8.06376C10.0201 7.29408 10.6458 6.66833 11.4134 6.67042Z" fill="#0C0300"/>
<path d="M11.4155 6.6725C12.1852 6.6725 12.8151 7.28783 12.8151 8.05542C12.8151 8.82301 12.1852 9.45711 11.4155 9.45711C10.6458 9.45711 10.0201 8.83344 10.0222 8.06376C10.0222 7.29408 10.6479 6.66833 11.4155 6.67042V6.6725Z" fill="#0E0400"/>
<path d="M11.4176 6.67432C12.1873 6.67641 12.8172 7.28756 12.8172 8.05724C12.8172 8.82692 12.1852 9.46102 11.4176 9.46102C10.6501 9.46102 10.0222 8.83735 10.0243 8.06767C10.0243 7.29799 10.6501 6.67224 11.4176 6.67432Z" fill="#0F0400"/>
<path d="M11.4176 6.67885C12.1873 6.68094 12.8172 7.29 12.8172 8.05968C12.8172 8.82936 12.1852 9.46346 11.4176 9.46346C10.6501 9.46346 10.0222 8.83979 10.0243 8.07011C10.0264 7.30043 10.6501 6.67468 11.4176 6.67676V6.67885Z" fill="#110500"/>
<path d="M11.4197 6.68018C12.1894 6.68226 12.8214 7.29133 12.8214 8.05892C12.8214 8.82651 12.1894 9.46479 11.4197 9.46479C10.65 9.46479 10.0243 8.84112 10.0285 8.07352C10.0305 7.30384 10.6542 6.67809 11.4197 6.68226V6.68018Z" fill="#130500"/>
<path d="M11.4217 6.68262C12.1893 6.6847 12.8234 7.29169 12.8234 8.06136C12.8234 8.83104 12.1893 9.46723 11.4217 9.46723C10.6541 9.46723 10.0263 8.84356 10.0305 8.07596C10.0326 7.30629 10.6562 6.68053 11.4217 6.6847V6.68262Z" fill="#140600"/>
<path d="M11.4239 6.68557C12.1915 6.68765 12.8256 7.29255 12.8256 8.06223C12.8256 8.83191 12.1915 9.46809 11.4239 9.46809C10.6563 9.46809 10.0284 8.84442 10.0326 8.07683C10.0347 7.30715 10.6605 6.6814 11.4239 6.68557Z" fill="#160600"/>
<path d="M11.4239 6.68654C12.1915 6.69072 12.8276 7.29353 12.8276 8.06112C12.8276 8.82871 12.1935 9.46907 11.4239 9.46907C10.6542 9.46907 10.0305 8.8454 10.0326 8.07781C10.0347 7.30813 10.6604 6.68237 11.4239 6.68654Z" fill="#180600"/>
<path d="M11.426 6.68899C12.1936 6.69316 12.8298 7.29388 12.8298 8.06356C12.8298 8.83324 12.1936 9.47151 11.426 9.47151C10.6584 9.47151 10.0326 8.84784 10.0347 8.08025C10.0389 7.31057 10.6626 6.68481 11.426 6.68899Z" fill="#190700"/>
<path d="M11.428 6.69094C12.1956 6.69511 12.8318 7.29584 12.8318 8.06343C12.8318 8.83102 12.1956 9.47346 11.428 9.47346C10.6604 9.47346 10.0347 8.84979 10.0367 8.0822C10.0409 7.31252 10.6646 6.68677 11.428 6.69094Z" fill="#1B0700"/>
<path d="M11.428 6.69303C12.1956 6.6972 12.8318 7.29584 12.8318 8.06343C12.8318 8.83102 12.1956 9.47346 11.428 9.47346C10.6604 9.47346 10.0347 8.85188 10.0367 8.0822C10.0409 7.31252 10.6646 6.68677 11.428 6.69094V6.69303Z" fill="#1D0800"/>
<path d="M11.4301 6.69485C12.1977 6.69902 12.836 7.29557 12.836 8.06525C12.836 8.83493 12.1977 9.47737 11.4301 9.47737C10.6626 9.47737 10.0368 8.85579 10.0389 8.08611C10.0431 7.31434 10.6667 6.69067 11.4301 6.69485Z" fill="#1F0800"/>
<path d="M11.4322 6.69971C12.1998 6.70388 12.8381 7.30043 12.8381 8.06802C12.8381 8.83562 12.1998 9.48014 11.4322 9.48014C10.6646 9.48014 10.0389 8.85856 10.0431 8.09097C10.0472 7.3192 10.6709 6.69554 11.4322 6.70179V6.69971Z" fill="#200900"/>
<path d="M11.4344 6.70117C12.202 6.70534 12.8402 7.29981 12.8402 8.0674C12.8402 8.83499 12.202 9.48161 11.4344 9.48161C10.6668 9.48161 10.041 8.86003 10.0452 8.09243C10.0494 7.32067 10.673 6.697 11.4344 6.70326V6.70117Z" fill="#220900"/>
<path d="M11.4344 6.70366C12.202 6.70783 12.8402 7.3023 12.8402 8.06781C12.8402 8.83331 12.1999 9.48201 11.4344 9.48201C10.6689 9.48201 10.041 8.86043 10.0452 8.09284C10.0494 7.32107 10.673 6.6974 11.4344 6.70366Z" fill="#240A00"/>
<path d="M11.4364 6.70561C12.204 6.71187 12.8443 7.30217 12.8443 8.06976C12.8443 8.83735 12.204 9.48396 11.4364 9.48396C10.6688 9.48396 10.043 8.86238 10.0472 8.09479C10.0514 7.32303 10.675 6.69936 11.4364 6.70561Z" fill="#250A00"/>
<path d="M11.4385 6.70757C12.206 6.71382 12.8464 7.30203 12.8464 8.06963C12.8464 8.83722 12.206 9.48592 11.4385 9.48592C10.6709 9.48592 10.0451 8.86433 10.0493 8.09674C10.0534 7.32498 10.6792 6.70131 11.4385 6.70757Z" fill="#270B00"/>
<path d="M11.4385 6.70963C12.206 6.71588 12.8464 7.30409 12.8464 8.0696C12.8464 8.83511 12.204 9.48589 11.4385 9.48589C10.6729 9.48589 10.0451 8.86431 10.0493 8.09672C10.0534 7.32495 10.6792 6.70337 11.4385 6.70754V6.70963Z" fill="#290B00"/>
<path d="M11.4406 6.71242C12.2082 6.71868 12.8506 7.30481 12.8506 8.0724C12.8506 8.83999 12.2082 9.49077 11.4406 9.49077C10.673 9.49077 10.0472 8.86919 10.0514 8.1016C10.0577 7.32984 10.6813 6.70825 11.4406 6.71242Z" fill="#2A0C00"/>
<path d="M11.4426 6.71451C12.2102 6.72077 12.8526 7.30481 12.8526 8.0724C12.8526 8.83999 12.2102 9.49077 11.4426 9.49077C10.675 9.49077 10.0493 8.86919 10.0534 8.1016C10.0597 7.32984 10.6834 6.70825 11.4426 6.71242V6.71451Z" fill="#2C0C00"/>
<path d="M11.4447 6.71584C12.2102 6.7221 12.8548 7.30614 12.8548 8.07164C12.8548 8.83715 12.2102 9.49211 11.4447 9.49211C10.6792 9.49211 10.0514 8.87052 10.0556 8.10502C10.0618 7.33325 10.6855 6.71167 11.4447 6.71584Z" fill="#2E0D00"/>
<path d="M11.4448 6.71826C12.2103 6.72452 12.8548 7.30647 12.8548 8.07406C12.8548 8.84166 12.2103 9.49453 11.4448 9.49453C10.6792 9.49453 10.0514 8.87294 10.0577 8.10744C10.0639 7.33567 10.6876 6.71409 11.4448 6.72035V6.71826Z" fill="#300D00"/>
<path d="M11.4468 6.72168C12.2123 6.72794 12.8589 7.30989 12.8589 8.0754C12.8589 8.8409 12.2144 9.49794 11.4468 9.49794C10.6792 9.49794 10.0534 8.87636 10.0597 8.11085C10.0659 7.33909 10.6896 6.71751 11.4468 6.72376V6.72168Z" fill="#310D00"/>
<path d="M11.449 6.72466C12.2145 6.73091 12.8611 7.31078 12.8611 8.07629C12.8611 8.84179 12.2145 9.49884 11.449 9.49884C10.6835 9.49884 10.0556 8.87725 10.0619 8.11175C10.0681 7.33998 10.6918 6.7184 11.449 6.72466Z" fill="#330E00"/>
<path d="M11.449 6.7271C12.2145 6.73544 12.8611 7.31114 12.8611 8.07873C12.8611 8.84632 12.2145 9.50128 11.449 9.50128C10.6835 9.50128 10.0556 8.87969 10.0619 8.11419C10.0681 7.34242 10.6918 6.72084 11.449 6.7271Z" fill="#350E00"/>
<path d="M11.451 6.72856C12.2165 6.73691 12.8652 7.3126 12.8652 8.07811C12.8652 8.84361 12.2186 9.50274 11.451 9.50274C10.6834 9.50274 10.0576 8.88116 10.0639 8.11565C10.0701 7.34389 10.6938 6.7223 11.451 6.72856Z" fill="#360F00"/>
<path d="M11.4531 6.73065C12.2186 6.73899 12.8673 7.3126 12.8673 8.07811C12.8673 8.84361 12.2186 9.50274 11.4531 9.50274C10.6875 9.50274 10.0597 8.88116 10.066 8.11565C10.0722 7.34389 10.6959 6.7223 11.4531 6.72856V6.73065Z" fill="#380F00"/>
<path d="M11.4552 6.73296C12.2207 6.7413 12.8694 7.31491 12.8694 8.08042C12.8694 8.84592 12.2207 9.50714 11.4552 9.50714C10.6897 9.50714 10.0618 8.88555 10.0681 8.12005C10.0744 7.34828 10.7001 6.7267 11.4552 6.73296Z" fill="#3A1000"/>
<path d="M11.4552 6.73504C12.2207 6.74339 12.8694 7.31491 12.8694 8.08042C12.8694 8.84592 12.2207 9.50714 11.4552 9.50714C10.6897 9.50714 10.0618 8.88555 10.0681 8.12005C10.0764 7.34828 10.7001 6.7267 11.4552 6.73296V6.73504Z" fill="#3B1000"/>
<path d="M11.4573 6.73682C12.2228 6.74516 12.8736 7.3146 12.8736 8.0801C12.8736 8.84561 12.2228 9.50891 11.4573 9.50891C10.6918 9.50891 10.0639 8.88733 10.0723 8.12391C10.0806 7.35214 10.7043 6.73056 11.4573 6.7389V6.73682Z" fill="#3D1100"/>
<path d="M11.4593 6.73926C12.2248 6.7476 12.8756 7.31704 12.8756 8.08254C12.8756 8.84805 12.2248 9.51135 11.4593 9.51135C10.6938 9.51135 10.066 8.89185 10.0743 8.12635C10.0826 7.35458 10.7063 6.733 11.4593 6.74134V6.73926Z" fill="#3F1100"/>
<path d="M11.4593 6.74129C12.2248 6.74964 12.8756 7.31699 12.8756 8.0825C12.8756 8.848 12.2248 9.5113 11.4593 9.5113C10.6938 9.5113 10.066 8.8918 10.0743 8.1263C10.0826 7.35453 10.7063 6.73295 11.4593 6.74129Z" fill="#411200"/>
<path d="M11.4614 6.7452C12.2269 6.75354 12.8777 7.31881 12.8777 8.08432C12.8777 8.84982 12.2248 9.51521 11.4614 9.51521C10.698 9.51521 10.068 8.89571 10.0764 8.1302C10.0847 7.35844 10.7084 6.73686 11.4614 6.7452Z" fill="#421200"/>
<path d="M11.4636 6.74715C12.2291 6.75758 12.882 7.32076 12.882 8.08627C12.882 8.85178 12.2291 9.51716 11.4636 9.51716C10.6981 9.51716 10.0702 8.89766 10.0786 8.13216C10.0869 7.36039 10.7106 6.73881 11.4636 6.74715Z" fill="#441300"/>
<path d="M11.4655 6.74959C12.231 6.76002 12.8839 7.32112 12.8839 8.08662C12.8839 8.85213 12.231 9.5196 11.4655 9.5196C10.7 9.5196 10.0722 8.90011 10.0805 8.1346C10.0889 7.36283 10.7125 6.74125 11.4655 6.74959Z" fill="#461300"/>
<path d="M11.4655 6.75168C12.229 6.76211 12.8839 7.3232 12.8839 8.08662C12.8839 8.85005 12.229 9.5196 11.4655 9.5196C10.7021 9.5196 10.0722 8.90011 10.0805 8.1346C10.0889 7.36283 10.7125 6.74125 11.4655 6.74959V6.75168Z" fill="#471300"/>
<path d="M11.4677 6.75399C12.2311 6.76442 12.8881 7.32342 12.8881 8.08893C12.8881 8.85444 12.2332 9.524 11.4677 9.524C10.7022 9.524 10.0743 8.9045 10.0827 8.13899C10.091 7.36723 10.7147 6.74565 11.4677 6.75399Z" fill="#491400"/>
<path d="M11.4698 6.75537C12.2332 6.7658 12.8903 7.32272 12.8903 8.08823C12.8903 8.85374 12.2353 9.52329 11.4698 9.52329C10.7043 9.52329 10.0765 8.9038 10.0848 8.14037C10.0952 7.36861 10.7168 6.74703 11.4698 6.75746V6.75537Z" fill="#4B1400"/>
<path d="M11.4697 6.75732C12.2331 6.76775 12.8902 7.32467 12.8902 8.0881C12.8902 8.85152 12.2331 9.52525 11.4697 9.52525C10.7063 9.52525 10.0764 8.90575 10.0868 8.14233C10.0972 7.37056 10.7209 6.74898 11.4697 6.75941V6.75732Z" fill="#4C1500"/>
<path d="M11.4719 6.76038C12.2353 6.77081 12.8924 7.32565 12.8924 8.08907C12.8924 8.85249 12.2353 9.52622 11.4719 9.52622C10.7085 9.52622 10.0786 8.90672 10.089 8.1433C10.0994 7.37154 10.7231 6.74995 11.4719 6.76038Z" fill="#4E1500"/>
<path d="M11.4739 6.76234C12.2373 6.77277 12.8965 7.3276 12.8965 8.09102C12.8965 8.85444 12.2394 9.52817 11.4739 9.52817C10.7084 9.52817 10.0806 8.90868 10.091 8.14526C10.1014 7.37349 10.7251 6.75191 11.4739 6.76234Z" fill="#501600"/>
<path d="M11.476 6.76624C12.2394 6.77667 12.8986 7.32942 12.8986 8.09284C12.8986 8.85626 12.2394 9.53208 11.476 9.53208C10.7126 9.53208 10.0827 8.91258 10.0931 8.14916C10.1035 7.3774 10.7272 6.75581 11.476 6.76624Z" fill="#521600"/>
<path d="M11.476 6.76833C12.2394 6.78084 12.8986 7.32942 12.8986 8.09284C12.8986 8.85626 12.2394 9.53208 11.476 9.53208C10.7126 9.53208 10.0827 8.91258 10.0931 8.14916C10.1035 7.3774 10.7272 6.75581 11.476 6.76624V6.76833Z" fill="#531700"/>
<path d="M11.4781 6.77015C12.2416 6.78266 12.9007 7.33124 12.9007 8.09466C12.9007 8.85809 12.2416 9.53599 11.4781 9.53599C10.7147 9.53599 10.0848 8.91649 10.0952 8.15307C10.1056 7.3813 10.7293 6.75972 11.4781 6.77015Z" fill="#551700"/>
<path d="M11.4802 6.77224C12.2436 6.78475 12.9048 7.33124 12.9048 8.09466C12.9048 8.85809 12.2436 9.53599 11.4802 9.53599C10.7168 9.53599 10.0869 8.91649 10.0973 8.15307C10.1077 7.3813 10.7314 6.75972 11.4802 6.77015V6.77224Z" fill="#571800"/>
<path d="M11.4802 6.77419C12.2436 6.7867 12.9048 7.33111 12.9048 8.09453C12.9048 8.85795 12.2436 9.53794 11.4802 9.53794C10.7168 9.53794 10.0869 8.91844 10.0973 8.15502C10.1077 7.38326 10.7314 6.76167 11.4802 6.7721V6.77419Z" fill="#581800"/>
<path d="M11.4823 6.77637C12.2457 6.78888 12.9069 7.33329 12.9069 8.09671C12.9069 8.86013 12.2457 9.54012 11.4823 9.54012C10.7189 9.54012 10.0889 8.92062 10.1014 8.15929C10.1119 7.38752 10.7355 6.76594 11.4823 6.77845V6.77637Z" fill="#5A1900"/>
<path d="M11.4843 6.77832C12.2478 6.79084 12.9111 7.33316 12.9111 8.09658C12.9111 8.86 12.2478 9.54207 11.4843 9.54207C10.7209 9.54207 10.091 8.92257 10.1035 8.16124C10.116 7.38948 10.7376 6.76789 11.4843 6.78041V6.77832Z" fill="#5C1900"/>
<path d="M11.4865 6.78095C12.2499 6.79346 12.9132 7.33578 12.9132 8.09712C12.9132 8.85845 12.2499 9.54261 11.4865 9.54261C10.7231 9.54261 10.0931 8.92312 10.1057 8.16178C10.1182 7.39002 10.7418 6.76843 11.4865 6.78095Z" fill="#5E1A00"/>
<path d="M11.4865 6.7829C12.2499 6.79542 12.9132 7.33565 12.9132 8.09907C12.9132 8.86249 12.2499 9.54456 11.4865 9.54456C10.7231 9.54456 10.0931 8.92715 10.1057 8.16373C10.1182 7.39197 10.7418 6.77039 11.4865 6.7829Z" fill="#5F1A00"/>
<path d="M11.4885 6.78437C12.2498 6.79688 12.9152 7.33503 12.9152 8.09845C12.9152 8.86187 12.2498 9.54603 11.4885 9.54603C10.7272 9.54603 10.0952 8.92862 10.1077 8.1652C10.1202 7.39343 10.7439 6.77185 11.4885 6.78437Z" fill="#611A00"/>
<path d="M11.4906 6.78938C12.252 6.80398 12.9194 7.34005 12.9194 8.10138C12.9194 8.86272 12.2541 9.54896 11.4906 9.54896C10.7272 9.54896 10.0973 8.93155 10.1098 8.16813C10.1223 7.39636 10.746 6.77478 11.4906 6.7873V6.78938Z" fill="#631B00"/>
<path d="M11.4906 6.7912C12.252 6.8058 12.9194 7.33978 12.9194 8.1032C12.9194 8.86662 12.252 9.55287 11.4906 9.55287C10.7293 9.55287 10.0973 8.93545 10.1098 8.17203C10.1223 7.40027 10.746 6.77869 11.4906 6.7912Z" fill="#641B00"/>
<path d="M11.4928 6.79329C12.2541 6.80789 12.9216 7.34186 12.9216 8.1032C12.9216 8.86453 12.2541 9.55287 11.4928 9.55287C10.7314 9.55287 10.0994 8.93545 10.1119 8.17203C10.1245 7.40027 10.7481 6.77869 11.4928 6.7912V6.79329Z" fill="#661C00"/>
<path d="M11.4948 6.7959C12.2561 6.8105 12.9236 7.34239 12.9236 8.10373C12.9236 8.86506 12.2561 9.55548 11.4948 9.55548C10.7334 9.55548 10.1014 8.93807 10.116 8.17673C10.1285 7.40497 10.7522 6.78338 11.4948 6.79798V6.7959Z" fill="#681C00"/>
<path d="M11.4969 6.79736C12.2582 6.81196 12.9277 7.34177 12.9277 8.10519C12.9277 8.86861 12.2582 9.55694 11.4969 9.55694C10.7355 9.55694 10.1035 8.93953 10.1181 8.17819C10.1306 7.40643 10.7543 6.78485 11.4969 6.79945V6.79736Z" fill="#691D00"/>
<path d="M11.4969 6.79932C12.2582 6.81392 12.9277 7.34372 12.9277 8.10506C12.9277 8.86639 12.2582 9.5589 11.4969 9.5589C10.7355 9.5589 10.1035 8.94148 10.1181 8.18015C10.1306 7.40838 10.7543 6.7868 11.4969 6.8014V6.79932Z" fill="#6B1D00"/>
<path d="M11.499 6.80152C12.2603 6.81612 12.9299 7.34384 12.9299 8.10518C12.9299 8.86651 12.2603 9.55901 11.499 9.55901C10.7377 9.55901 10.1056 8.9416 10.1202 8.18027C10.1348 7.4085 10.7564 6.78692 11.499 6.80152Z" fill="#6D1E00"/>
<path d="M11.5011 6.80445C12.2624 6.81905 12.934 7.34469 12.934 8.10811C12.934 8.87153 12.2624 9.56194 11.5011 9.56194C10.7397 9.56194 10.1077 8.94453 10.1223 8.1832C10.1369 7.41143 10.7585 6.78985 11.5011 6.80445Z" fill="#6F1E00"/>
<path d="M11.5011 6.80543C12.2624 6.82211 12.934 7.34566 12.934 8.107C12.934 8.86833 12.2624 9.56292 11.5011 9.56292C10.7397 9.56292 10.1077 8.94551 10.1223 8.18417C10.1369 7.41241 10.7606 6.79083 11.5011 6.80543Z" fill="#701F00"/>
<path d="M11.5031 6.80751C12.2644 6.8242 12.9361 7.34566 12.9361 8.107C12.9361 8.86833 12.2644 9.56292 11.5031 9.56292C10.7417 9.56292 10.1118 8.94551 10.1243 8.18417C10.1389 7.41241 10.7626 6.79083 11.5031 6.80543V6.80751Z" fill="#721F00"/>
<path d="M11.5053 6.81178C12.2666 6.82846 12.9382 7.34992 12.9382 8.11126C12.9382 8.87259 12.2645 9.56927 11.5053 9.56927C10.746 9.56927 10.114 8.95186 10.1265 8.19052C10.1411 7.41876 10.7648 6.79717 11.5053 6.81178Z" fill="#742000"/>
<path d="M11.5073 6.8138C12.2686 6.83049 12.9424 7.34987 12.9424 8.1112C12.9424 8.87254 12.2686 9.56921 11.5073 9.56921C10.746 9.56921 10.116 8.9518 10.1285 8.19047C10.1431 7.4187 10.7668 6.79712 11.5073 6.8138Z" fill="#752000"/>
<path d="M11.5073 6.81641C12.2686 6.83309 12.9423 7.35038 12.9423 8.11172C12.9423 8.87305 12.2686 9.57181 11.5073 9.57181C10.7459 9.57181 10.116 8.9544 10.1306 8.19515C10.1452 7.42339 10.7689 6.80181 11.5073 6.81849V6.81641Z" fill="#772000"/>
<path d="M11.5094 6.8182C12.2708 6.83489 12.9445 7.35218 12.9445 8.11143C12.9445 8.87067 12.2687 9.57152 11.5094 9.57152C10.7502 9.57152 10.1182 8.95411 10.1328 8.19486C10.1474 7.4231 10.771 6.80151 11.5094 6.8182Z" fill="#792100"/>
<path d="M11.5114 6.82015C12.2707 6.83684 12.9486 7.35204 12.9486 8.11338C12.9486 8.87471 12.2728 9.57347 11.5114 9.57347C10.7501 9.57347 10.1202 8.95606 10.1348 8.19681C10.1494 7.42505 10.773 6.80347 11.5114 6.82015Z" fill="#7A2100"/>
<path d="M11.5114 6.82259C12.2707 6.83928 12.9486 7.35449 12.9486 8.11373C12.9486 8.87298 12.2728 9.57592 11.5114 9.57592C10.7501 9.57592 10.1202 8.9585 10.1348 8.19926C10.1515 7.42749 10.773 6.80591 11.5114 6.82259Z" fill="#7C2200"/>
<path d="M11.5136 6.82468C12.2729 6.84137 12.9508 7.35449 12.9508 8.11373C12.9508 8.87298 12.2729 9.57592 11.5136 9.57592C10.7544 9.57592 10.1224 8.9585 10.137 8.19926C10.1537 7.42749 10.7752 6.80591 11.5136 6.82259V6.82468Z" fill="#7E2200"/>
<path d="M11.5157 6.82601C12.275 6.84478 12.9529 7.35373 12.9529 8.11507C12.9529 8.8764 12.275 9.57933 11.5157 9.57933C10.7565 9.57933 10.1244 8.96401 10.139 8.20267C10.1557 7.43091 10.7773 6.80933 11.5157 6.82601Z" fill="#802300"/>
<path d="M11.5177 6.8281C12.277 6.84687 12.957 7.35582 12.957 8.11507C12.957 8.87432 12.2791 9.57933 11.5177 9.57933C10.7564 9.57933 10.1265 8.96401 10.1411 8.20267C10.1577 7.43091 10.7793 6.80933 11.5177 6.82601V6.8281Z" fill="#812300"/>
<path d="M11.5177 6.83347C12.277 6.85224 12.957 7.3591 12.957 8.11835C12.957 8.8776 12.277 9.5847 11.5177 9.5847C10.7585 9.5847 10.1265 8.96938 10.1411 8.20804C10.1577 7.43628 10.7814 6.8147 11.5177 6.83138V6.83347Z" fill="#832400"/>
<path d="M11.5199 6.83496C12.2791 6.85373 12.9591 7.36059 12.9591 8.11984C12.9591 8.87909 12.2791 9.58619 11.5199 9.58619C10.7606 9.58619 10.1286 8.97087 10.1453 8.21162C10.162 7.43986 10.7856 6.81827 11.5199 6.83705V6.83496Z" fill="#852400"/>
<path d="M11.5219 6.8374C12.2812 6.85617 12.9612 7.36095 12.9612 8.1202C12.9612 8.87945 12.2812 9.58864 11.5219 9.58864C10.7627 9.58864 10.1307 8.97331 10.1474 8.21406C10.164 7.4423 10.7877 6.82072 11.5219 6.83949V6.8374Z" fill="#862500"/>
<path d="M11.5219 6.83928C12.2812 6.85805 12.9633 7.36074 12.9633 8.11999C12.9633 8.87924 12.2812 9.58843 11.5219 9.58843C10.7627 9.58843 10.1307 8.97311 10.1474 8.21386C10.164 7.44209 10.7877 6.82051 11.5219 6.83928Z" fill="#882500"/>
<path d="M11.5239 6.84075C12.2832 6.85952 12.9653 7.36221 12.9653 8.12146C12.9653 8.88071 12.2832 9.5899 11.5239 9.5899C10.7647 9.5899 10.1327 8.97457 10.1494 8.21532C10.1661 7.44356 10.7897 6.82197 11.5239 6.84075Z" fill="#8A2600"/>
<path d="M11.5261 6.84319C12.2853 6.86196 12.9674 7.36256 12.9674 8.12181C12.9674 8.88106 12.2853 9.59234 11.5261 9.59234C10.7668 9.59234 10.1348 8.97701 10.1515 8.21776C10.1682 7.446 10.7919 6.82442 11.5261 6.84319Z" fill="#8B2600"/>
<path d="M11.5282 6.84527C12.2874 6.86405 12.9716 7.36256 12.9716 8.12181C12.9716 8.88106 12.2874 9.59234 11.5282 9.59234C10.7689 9.59234 10.1369 8.97701 10.1536 8.21776C10.1724 7.446 10.7939 6.82442 11.5282 6.84319V6.84527Z" fill="#8D2600"/>
<path d="M11.5282 6.84758C12.2874 6.86844 12.9716 7.36487 12.9716 8.12412C12.9716 8.88337 12.2874 9.59673 11.5282 9.59673C10.7689 9.59673 10.1369 8.98141 10.1536 8.22216C10.1724 7.45039 10.7939 6.82881 11.5282 6.84758Z" fill="#8F2700"/>
<path d="M11.5302 6.84967C12.2895 6.87053 12.9736 7.36487 12.9736 8.12412C12.9736 8.88337 12.2895 9.59673 11.5302 9.59673C10.771 9.59673 10.139 8.98141 10.1557 8.22216C10.1744 7.45039 10.796 6.82881 11.5302 6.84758V6.84967Z" fill="#912700"/>
<path d="M11.5323 6.85205C12.2895 6.87291 12.9757 7.36726 12.9757 8.12442C12.9757 8.88158 12.2895 9.59912 11.5323 9.59912C10.7752 9.59912 10.1411 8.98379 10.1598 8.22663C10.1786 7.45486 10.8002 6.83328 11.5323 6.85414V6.85205Z" fill="#922800"/>
<path d="M11.5323 6.85547C12.2895 6.87633 12.9778 7.36859 12.9778 8.12784C12.9778 8.88709 12.2916 9.60253 11.5323 9.60253C10.7731 9.60253 10.1411 8.98721 10.1598 8.23004C10.1786 7.45828 10.8023 6.8367 11.5323 6.85756V6.85547Z" fill="#942800"/>
<path d="M11.5345 6.85791C12.2916 6.87877 12.98 7.36894 12.98 8.12819C12.98 8.88744 12.2937 9.60497 11.5345 9.60497C10.7752 9.60497 10.1432 8.98965 10.162 8.23248C10.1807 7.46072 10.8044 6.83914 11.5345 6.85999V6.85791Z" fill="#962900"/>
<path d="M11.5365 6.86037C12.2937 6.88123 12.982 7.37141 12.982 8.12857C12.982 8.88573 12.2937 9.60535 11.5365 9.60535C10.7794 9.60535 10.1453 8.99003 10.164 8.23286C10.1828 7.4611 10.8065 6.83951 11.5365 6.86037Z" fill="#972900"/>
<path d="M11.5386 6.86184C12.2958 6.8827 12.9841 7.37079 12.9841 8.13003C12.9841 8.88928 12.2958 9.60682 11.5386 9.60682C10.7814 9.60682 10.1473 8.99149 10.1661 8.23433C10.1849 7.46256 10.8086 6.84098 11.5386 6.86184Z" fill="#992A00"/>
<path d="M11.5386 6.86428C12.2958 6.88514 12.9862 7.37323 12.9862 8.13039C12.9862 8.88755 12.2979 9.60926 11.5386 9.60926C10.7794 9.60926 10.1473 8.99393 10.1661 8.23677C10.1849 7.465 10.8086 6.84342 11.5386 6.86428Z" fill="#9B2A00"/>
<path d="M11.5407 6.86636C12.2978 6.88722 12.9883 7.37323 12.9883 8.13039C12.9883 8.88755 12.2978 9.60926 11.5407 9.60926C10.7835 9.60926 10.1494 8.99393 10.1682 8.23677C10.187 7.465 10.8106 6.84342 11.5407 6.86428V6.86636Z" fill="#9C2B00"/>
<path d="M11.5427 6.86819C12.2999 6.89113 12.9903 7.37296 12.9903 8.13221C12.9903 8.89146 12.2999 9.61316 11.5427 9.61316C10.7855 9.61316 10.1514 8.99784 10.1702 8.24067C10.1911 7.46891 10.8126 6.84733 11.5427 6.86819Z" fill="#9E2B00"/>
<path d="M11.5427 6.87027C12.2999 6.89322 12.9924 7.37505 12.9924 8.13221C12.9924 8.88937 12.3019 9.61316 11.5427 9.61316C10.7834 9.61316 10.1514 8.99784 10.1702 8.24067C10.1911 7.46891 10.8126 6.84733 11.5427 6.86819V6.87027Z" fill="#A02C00"/>
<path d="M11.5449 6.87256C12.302 6.8955 12.9945 7.37525 12.9945 8.13241C12.9945 8.88957 12.302 9.61545 11.5449 9.61545C10.7877 9.61545 10.1536 9.00221 10.1745 8.24505C10.1953 7.47328 10.8169 6.8517 11.5449 6.87464V6.87256Z" fill="#A22C00"/>
<path d="M11.5469 6.87464C12.3041 6.89758 12.9966 7.37524 12.9966 8.13241C12.9966 8.88957 12.3041 9.61544 11.5469 9.61544C10.7898 9.61544 10.1557 9.0022 10.1765 8.24504C10.1974 7.47328 10.819 6.85169 11.5469 6.87464Z" fill="#A32D00"/>
<path d="M11.5491 6.87891C12.3062 6.90185 12.9987 7.37951 12.9987 8.13667C12.9987 8.89384 12.3062 9.6218 11.5491 9.6218C10.7919 9.6218 10.1578 9.00856 10.1787 8.2514C10.1995 7.47963 10.8211 6.85805 11.5491 6.88099V6.87891Z" fill="#A52D00"/>
<path d="M11.5491 6.88099C12.3062 6.90393 13.0008 7.37951 13.0008 8.13667C13.0008 8.89383 12.3062 9.62179 11.5491 9.62179C10.7919 9.62179 10.1578 9.00855 10.1787 8.25139C10.1995 7.47963 10.8232 6.85804 11.5491 6.88099Z" fill="#A72D00"/>
<path d="M11.5511 6.88307C12.3082 6.90602 13.0028 7.38159 13.0028 8.13667C13.0028 8.89175 12.3082 9.62179 11.5511 9.62179C10.7939 9.62179 10.1598 9.00855 10.1807 8.25139C10.2015 7.47963 10.8252 6.85804 11.5511 6.88099V6.88307Z" fill="#A82E00"/>
<path d="M11.5532 6.88489C12.3104 6.90784 13.005 7.38133 13.005 8.13849C13.005 8.89565 12.3104 9.6257 11.5532 9.6257C10.7961 9.6257 10.162 9.01246 10.1828 8.2553C10.2037 7.48353 10.8273 6.86195 11.5532 6.88489Z" fill="#AA2E00"/>
<path d="M11.5532 6.88698C12.3083 6.90992 13.005 7.38133 13.005 8.13849C13.005 8.89565 12.3083 9.6257 11.5532 9.6257C10.7981 9.6257 10.162 9.01246 10.1828 8.2553C10.2037 7.48353 10.8273 6.86195 11.5532 6.88489V6.88698Z" fill="#AC2F00"/>
<path d="M11.5553 6.88893C12.3104 6.91396 13.0091 7.38328 13.0091 8.13836C13.0091 8.89343 12.3125 9.62765 11.5553 9.62765C10.7981 9.62765 10.164 9.01441 10.1849 8.25725C10.2057 7.48548 10.8294 6.8639 11.5553 6.88685V6.88893Z" fill="#AD2F00"/>
<path d="M11.5574 6.89111C12.3125 6.91614 13.0112 7.38337 13.0112 8.14054C13.0112 8.8977 12.3146 9.62983 11.5574 9.62983C10.8002 9.62983 10.1661 9.01659 10.1891 8.26152C10.212 7.48975 10.8336 6.86817 11.5574 6.8932V6.89111Z" fill="#AF3000"/>
<path d="M11.5594 6.89355C12.3145 6.91858 13.0132 7.38581 13.0132 8.14089C13.0132 8.89597 12.3145 9.63227 11.5594 9.63227C10.8043 9.63227 10.1681 9.01903 10.1911 8.26396C10.214 7.49219 10.8356 6.87061 11.5594 6.89564V6.89355Z" fill="#B13000"/>
<path d="M11.5594 6.89526C12.3145 6.92029 13.0153 7.38543 13.0153 8.14051C13.0153 8.89559 12.3166 9.63189 11.5594 9.63189C10.8022 9.63189 10.1682 9.01866 10.1911 8.26358C10.214 7.49181 10.8356 6.87023 11.5594 6.89526Z" fill="#B33100"/>
<path d="M11.5615 6.89966C12.3166 6.92469 13.0175 7.38775 13.0175 8.14491C13.0175 8.90207 12.3187 9.63629 11.5615 9.63629C10.8044 9.63629 10.1703 9.02305 10.1932 8.26797C10.2162 7.49621 10.8378 6.87463 11.5615 6.89966Z" fill="#B43100"/>
<path d="M11.5636 6.90161C12.3187 6.92664 13.0195 7.3897 13.0195 8.14478C13.0195 8.89985 12.3187 9.63824 11.5636 9.63824C10.8085 9.63824 10.1724 9.025 10.1953 8.26993C10.2182 7.49816 10.8398 6.87658 11.5636 6.90161Z" fill="#B63200"/>
<path d="M11.5636 6.90369C12.3187 6.92872 13.0195 7.3897 13.0195 8.14478C13.0195 8.89985 12.3187 9.63824 11.5636 9.63824C10.8085 9.63824 10.1724 9.025 10.1953 8.26993C10.2182 7.49816 10.8398 6.87658 11.5636 6.90161V6.90369Z" fill="#B83200"/>
<path d="M11.5657 6.90601C12.3208 6.93104 13.0237 7.38992 13.0237 8.14709C13.0237 8.90425 12.3208 9.64264 11.5657 9.64264C10.8106 9.64264 10.1744 9.0294 10.1974 8.27432C10.2203 7.50047 10.844 6.88098 11.5657 6.90601Z" fill="#B93300"/>
<path d="M13.0258 8.14709C13.0258 8.90216 12.3228 9.64264 11.5678 9.64264C10.8127 9.64264 10.1765 9.0294 10.1995 8.27432C10.2224 7.50047 10.8461 6.88098 11.5678 6.90601C12.3228 6.93312 13.0258 7.38992 13.0258 8.145V8.14709Z" fill="#BB3300"/>
<path opacity="0.99" d="M11.5678 6.9098C12.3229 6.93483 13.0258 7.39371 13.0258 8.15088C13.0258 8.90804 12.3249 9.64643 11.5678 9.64643C10.8106 9.64643 10.1765 9.03319 10.1995 8.27811C10.2224 7.50635 10.8461 6.88685 11.5678 6.9098Z" fill="#BC3502"/>
<path opacity="0.98" d="M11.5699 6.91188C12.3249 6.93691 13.0258 7.39789 13.0258 8.15296C13.0258 8.90804 12.3249 9.64643 11.5699 9.64643C10.8148 9.64643 10.1807 9.03319 10.2016 8.27811C10.2245 7.50635 10.8461 6.88685 11.5699 6.9098V6.91188Z" fill="#BC3705"/>
<path opacity="0.97" d="M11.5699 6.91224C12.3249 6.93727 13.0258 7.40033 13.0258 8.1554C13.0258 8.91048 12.3249 9.64887 11.5699 9.64887C10.8148 9.64887 10.1807 9.03563 10.2016 8.28056C10.2245 7.50879 10.8461 6.88929 11.5699 6.91224Z" fill="#BD3907"/>
<path opacity="0.96" d="M11.5719 6.91432C12.327 6.93935 13.0258 7.40241 13.0258 8.15749C13.0258 8.91257 12.327 9.64887 11.5719 9.64887C10.8169 9.64887 10.1828 9.03563 10.2036 8.28056C10.2266 7.50879 10.8482 6.88929 11.5719 6.91224V6.91432Z" fill="#BD3A09"/>
<path opacity="0.95" d="M11.5741 6.91677C12.3292 6.9418 13.0279 7.40694 13.0279 8.16202C13.0279 8.9171 12.3292 9.65131 11.5741 9.65131C10.819 9.65131 10.1849 9.03807 10.2058 8.283C10.2287 7.51123 10.8503 6.89174 11.5741 6.91468V6.91677Z" fill="#BE3C0C"/>
<path opacity="0.95" d="M11.5741 6.91872C12.3292 6.94375 13.0279 7.40889 13.0279 8.16397C13.0279 8.91905 12.3312 9.65327 11.5741 9.65327C10.8169 9.65327 10.1849 9.04003 10.2058 8.28495C10.2287 7.51319 10.8503 6.89369 11.5741 6.91663V6.91872Z" fill="#BF3E0E"/>
<path opacity="0.94" d="M11.5762 6.92018C12.3312 6.94521 13.0279 7.41245 13.0279 8.16752C13.0279 8.9226 12.3312 9.65473 11.5762 9.65473C10.8211 9.65473 10.187 9.04149 10.2078 8.28642C10.2308 7.51465 10.8524 6.89515 11.5762 6.9181V6.92018Z" fill="#BF4010"/>
<path opacity="0.93" d="M11.5762 6.92214C12.3312 6.94717 13.0279 7.4144 13.0279 8.16947C13.0279 8.92455 12.3312 9.65669 11.5762 9.65669C10.8211 9.65669 10.187 9.04344 10.2078 8.28837C10.2287 7.5166 10.8503 6.89711 11.5762 6.92005V6.92214Z" fill="#C04213"/>
<path opacity="0.92" d="M11.5782 6.92214C12.3333 6.94508 13.0279 7.41648 13.0279 8.17156C13.0279 8.92664 12.3333 9.65669 11.5782 9.65669C10.8232 9.65669 10.1891 9.04344 10.2099 8.28837C10.2308 7.5166 10.8524 6.89711 11.5782 6.92005V6.92214Z" fill="#C14415"/>
<path opacity="0.91" d="M11.5782 6.92434C12.3333 6.94729 13.0279 7.41869 13.0279 8.17585C13.0279 8.93301 12.3333 9.66097 11.5782 9.66097C10.8232 9.66097 10.1891 9.04774 10.2099 8.29266C10.2308 7.52089 10.8524 6.90348 11.5782 6.92434Z" fill="#C14617"/>
<path opacity="0.9" d="M11.5803 6.92643C12.3354 6.94937 13.03 7.42286 13.03 8.17794C13.03 8.93301 12.3354 9.66097 11.5803 9.66097C10.8252 9.66097 10.1911 9.04774 10.212 8.29266C10.2328 7.52089 10.8544 6.90348 11.5803 6.92434V6.92643Z" fill="#C24719"/>
<path opacity="0.89" d="M11.5824 6.92874C12.3375 6.95168 13.03 7.42725 13.03 8.18233C13.03 8.93741 12.3375 9.66537 11.5824 9.66537C10.8273 9.66537 10.1953 9.05213 10.2141 8.29705C10.235 7.52529 10.8565 6.90788 11.5824 6.92874Z" fill="#C2491C"/>
<path opacity="0.88" d="M11.5824 6.93082C12.3375 6.95377 13.03 7.42934 13.03 8.18442C13.03 8.93949 12.3375 9.66537 11.5824 9.66537C10.8273 9.66537 10.1953 9.05213 10.2141 8.29705C10.235 7.52529 10.8565 6.90788 11.5824 6.92874V6.93082Z" fill="#C34B1E"/>
<path opacity="0.87" d="M11.5845 6.93277C12.3396 6.95572 13.03 7.43338 13.03 8.18845C13.03 8.94353 12.3396 9.66732 11.5845 9.66732C10.8294 9.66732 10.1974 9.05408 10.2162 8.299C10.237 7.52933 10.8586 6.90983 11.5845 6.93069V6.93277Z" fill="#C44D20"/>
<path opacity="0.86" d="M11.5845 6.93522C12.3396 6.95816 13.03 7.43582 13.03 8.1909C13.03 8.94597 12.3396 9.66976 11.5845 9.66976C10.8294 9.66976 10.1974 9.05652 10.2162 8.30145C10.237 7.53177 10.8565 6.91227 11.5845 6.93313V6.93522Z" fill="#C44F23"/>
<path opacity="0.85" d="M11.5866 6.93522C12.3416 6.95816 13.0321 7.4379 13.0321 8.19298C13.0321 8.94806 12.3416 9.66976 11.5866 9.66976C10.8315 9.66976 10.1995 9.05652 10.2182 8.30145C10.2391 7.53177 10.8586 6.91227 11.5866 6.93313V6.93522Z" fill="#C55125"/>
<path opacity="0.85" d="M11.5866 6.93766C12.3416 6.9606 13.03 7.44035 13.03 8.19542C13.03 8.9505 12.3416 9.6722 11.5866 9.6722C10.8315 9.6722 10.1995 9.05897 10.2182 8.30389C10.2391 7.53421 10.8586 6.91471 11.5866 6.93557V6.93766Z" fill="#C65327"/>
<path opacity="0.84" d="M11.5887 6.93961C12.3438 6.96047 13.0321 7.44439 13.0321 8.19946C13.0321 8.95454 12.3438 9.67416 11.5887 9.67416C10.8336 9.67416 10.2016 9.06092 10.2204 8.30584C10.2392 7.53616 10.8607 6.91666 11.5887 6.93752V6.93961Z" fill="#C6542A"/>
<path opacity="0.83" d="M11.5887 6.94133C12.3438 6.96219 13.03 7.44611 13.03 8.20327C13.03 8.96044 12.3438 9.67797 11.5887 9.67797C10.8336 9.67797 10.2016 9.06473 10.2204 8.30965C10.2392 7.53997 10.8607 6.92256 11.5887 6.94133Z" fill="#C7562C"/>
<path opacity="0.82" d="M11.5907 6.94342C12.3458 6.96428 13.032 7.45028 13.032 8.20536C13.032 8.96044 12.3458 9.67797 11.5907 9.67797C10.8356 9.67797 10.2036 9.06473 10.2224 8.30965C10.2412 7.53997 10.8627 6.92256 11.5907 6.94133V6.94342Z" fill="#C7582E"/>
<path opacity="0.81" d="M11.5928 6.94586C12.3479 6.96672 13.0342 7.45481 13.0342 8.20989C13.0342 8.96496 12.3479 9.68041 11.5928 9.68041C10.8378 9.68041 10.2058 9.06717 10.2245 8.31209C10.2433 7.54241 10.8649 6.925 11.5928 6.94378V6.94586Z" fill="#C85A31"/>
<path opacity="0.8" d="M11.5929 6.94586C12.348 6.96672 13.0321 7.45481 13.0321 8.20989C13.0321 8.96496 12.348 9.68041 11.5929 9.68041C10.8378 9.68041 10.2079 9.06717 10.2246 8.31209C10.2433 7.54241 10.8628 6.925 11.5929 6.94378V6.94586Z" fill="#C95C33"/>
<path opacity="0.79" d="M11.595 6.94733C12.35 6.96819 13.0342 7.45836 13.0342 8.21344C13.0342 8.96852 12.35 9.68187 11.595 9.68187C10.8399 9.68187 10.21 9.06864 10.2266 8.31356C10.2454 7.54388 10.8649 6.92647 11.595 6.94524V6.94733Z" fill="#C95E35"/>
<path opacity="0.78" d="M11.595 6.94977C12.35 6.97063 13.0321 7.4608 13.0321 8.21588C13.0321 8.97096 12.35 9.68432 11.595 9.68432C10.8399 9.68432 10.21 9.07108 10.2266 8.316C10.2454 7.54632 10.8649 6.92891 11.595 6.94768V6.94977Z" fill="#CA6038"/>
<path opacity="0.77" d="M11.597 6.95221C12.3521 6.97307 13.0341 7.46533 13.0341 8.22041C13.0341 8.97548 12.3521 9.68676 11.597 9.68676C10.8419 9.68676 10.212 9.07352 10.2287 8.31844C10.2474 7.54876 10.8669 6.93135 11.597 6.95012V6.95221Z" fill="#CA613A"/>
<path opacity="0.76" d="M11.597 6.95354C12.3521 6.9744 13.0341 7.46666 13.0341 8.22382C13.0341 8.98099 12.3521 9.69017 11.597 9.69017C10.8419 9.69017 10.212 9.07694 10.2287 8.32186C10.2474 7.55218 10.8669 6.93477 11.597 6.95354Z" fill="#CB633C"/>
<path opacity="0.75" d="M11.5991 6.95563C12.3542 6.9744 13.0342 7.47083 13.0342 8.22591C13.0342 8.98099 12.3542 9.69017 11.5991 9.69017C10.844 9.69017 10.2141 9.07693 10.2308 8.32186C10.2496 7.55426 10.8691 6.93477 11.5991 6.95354V6.95563Z" fill="#CC653F"/>
<path opacity="0.75" d="M11.5991 6.95647C12.3542 6.97524 13.0342 7.47376 13.0342 8.22884C13.0342 8.98392 12.3542 9.6931 11.5991 9.6931C10.844 9.6931 10.2141 9.07987 10.2308 8.32479C10.2475 7.5572 10.8691 6.9377 11.5991 6.95647Z" fill="#CC6741"/>
<path opacity="0.74" d="M11.6011 6.95847C12.3562 6.97724 13.0362 7.47576 13.0362 8.23084C13.0362 8.98592 12.3583 9.69302 11.6011 9.69302C10.844 9.69302 10.2161 9.07978 10.2328 8.3247C10.2495 7.55711 10.869 6.9397 11.6011 6.95639V6.95847Z" fill="#CD6943"/>
<path opacity="0.73" d="M11.6033 6.96042C12.3583 6.9792 13.0362 7.4798 13.0362 8.23488C13.0362 8.98996 12.3583 9.69497 11.6033 9.69497C10.8482 9.69497 10.2183 9.08173 10.2349 8.32665C10.2516 7.55906 10.8711 6.94165 11.6033 6.95834V6.96042Z" fill="#CE6B46"/>
<path opacity="0.72" d="M11.6033 6.96189C12.3583 6.98066 13.0362 7.48126 13.0362 8.23634C13.0362 8.99142 12.3583 9.69644 11.6033 9.69644C10.8482 9.69644 10.2183 9.0832 10.2349 8.32812C10.2516 7.56053 10.8711 6.94312 11.6033 6.9598V6.96189Z" fill="#CE6C48"/>
<path opacity="0.71" d="M11.6054 6.96433C12.3605 6.9831 13.0363 7.48579 13.0363 8.24087C13.0363 8.99595 12.3605 9.69888 11.6054 9.69888C10.8503 9.69888 10.2225 9.08564 10.2371 8.33056C10.2538 7.56297 10.8732 6.94556 11.6054 6.96224V6.96433Z" fill="#CF6E4A"/>
<path opacity="0.7" d="M11.6054 6.96628C12.3605 6.98506 13.0363 7.48775 13.0363 8.24282C13.0363 8.9979 12.3605 9.70083 11.6054 9.70083C10.8503 9.70083 10.2225 9.08759 10.2371 8.33252C10.2538 7.56492 10.8732 6.94751 11.6054 6.9642V6.96628Z" fill="#CF704C"/>
<path opacity="0.69" d="M11.6074 6.96628C12.3625 6.98506 13.0383 7.48983 13.0383 8.24491C13.0383 8.99999 12.3646 9.70083 11.6074 9.70083C10.8502 9.70083 10.2245 9.08759 10.2391 8.33252C10.2558 7.56492 10.8753 6.94751 11.6074 6.9642V6.96628Z" fill="#D0724F"/>
<path opacity="0.68" d="M11.6074 6.9681C12.3625 6.98688 13.0362 7.49165 13.0362 8.24882C13.0362 9.00598 12.3625 9.70474 11.6074 9.70474C10.8523 9.70474 10.2245 9.0915 10.2391 8.33642C10.2558 7.56883 10.8753 6.95142 11.6074 6.9681Z" fill="#D17451"/>
<path opacity="0.67" d="M11.6095 6.97019C12.3646 6.98688 13.0383 7.49582 13.0383 8.2509C13.0383 9.00598 12.3646 9.70474 11.6095 9.70474C10.8545 9.70474 10.2266 9.0915 10.2412 8.33642C10.2579 7.56883 10.8753 6.95142 11.6095 6.9681V6.97019Z" fill="#D17653"/>
<path opacity="0.66" d="M11.6095 6.97299C12.3646 6.98967 13.0363 7.50071 13.0363 8.25578C13.0363 9.01086 12.3646 9.70962 11.6095 9.70962C10.8545 9.70962 10.2266 9.09638 10.2412 8.3413C10.2579 7.57371 10.8753 6.9563 11.6095 6.97299Z" fill="#D27856"/>
<path opacity="0.65" d="M11.6116 6.975C12.3667 6.99168 13.0383 7.50272 13.0383 8.25779C13.0383 9.01287 12.3667 9.70955 11.6116 9.70955C10.8565 9.70955 10.2287 9.0963 10.2433 8.34123C10.2579 7.57363 10.8774 6.95831 11.6116 6.97291V6.975Z" fill="#D27958"/>
<path opacity="0.65" d="M11.6136 6.97646C12.3687 6.99315 13.0403 7.50627 13.0403 8.26134C13.0403 9.01642 12.3708 9.71101 11.6136 9.71101C10.8565 9.71101 10.2307 9.09777 10.2453 8.34269C10.2599 7.5751 10.8794 6.95977 11.6136 6.97438V6.97646Z" fill="#D37B5A"/>
<path opacity="0.64" d="M11.6136 6.97646C12.3687 6.99315 13.0383 7.50627 13.0383 8.26134C13.0383 9.01642 12.3687 9.71101 11.6136 9.71101C10.8585 9.71101 10.2307 9.09777 10.2453 8.34269C10.2599 7.57718 10.8794 6.95977 11.6136 6.97437V6.97646Z" fill="#D47D5D"/>
<path opacity="0.63" d="M11.6158 6.9789C12.3709 6.99559 13.0405 7.51079 13.0405 8.26587C13.0405 9.02095 12.3709 9.71345 11.6158 9.71345C10.8607 9.71345 10.2329 9.10021 10.2475 8.34513C10.2621 7.57963 10.8816 6.96222 11.6158 6.97682V6.9789Z" fill="#D47F5F"/>
<path opacity="0.62" d="M11.6158 6.98134C12.3708 6.99803 13.0383 7.51324 13.0383 8.26831C13.0383 9.02339 12.3708 9.71589 11.6158 9.71589C10.8607 9.71589 10.2349 9.10265 10.2474 8.34758C10.262 7.58207 10.8795 6.96466 11.6158 6.97926V6.98134Z" fill="#D58161"/>
<path opacity="0.61" d="M11.6178 6.98281C12.3729 6.9995 13.0404 7.51679 13.0404 8.27186C13.0404 9.02694 12.3729 9.71736 11.6178 9.71736C10.8628 9.71736 10.237 9.10412 10.2495 8.34904C10.2641 7.58353 10.8815 6.96612 11.6178 6.98072V6.98281Z" fill="#D68364"/>
<path opacity="0.6" d="M11.6178 6.98512C12.3729 7.0018 13.0404 7.52118 13.0404 8.27626C13.0404 9.03134 12.3729 9.72175 11.6178 9.72175C10.8628 9.72175 10.237 9.10851 10.2495 8.35344C10.2641 7.58793 10.8815 6.97052 11.6178 6.98512Z" fill="#D68566"/>
<path opacity="0.59" d="M11.62 6.9872C12.375 7.0018 13.0404 7.52327 13.0404 8.27834C13.0404 9.03342 12.375 9.72175 11.62 9.72175C10.8649 9.72175 10.2391 9.10851 10.2516 8.35344C10.2663 7.58793 10.8837 6.97052 11.62 6.98512V6.9872Z" fill="#D78668"/>
<path opacity="0.58" d="M11.622 6.98916C12.3771 7.00376 13.0425 7.5273 13.0425 8.28238C13.0425 9.03746 12.3771 9.7237 11.622 9.7237C10.867 9.7237 10.2412 9.11047 10.2537 8.35539C10.2683 7.58988 10.8857 6.97247 11.622 6.98707V6.98916Z" fill="#D7886B"/>
<path opacity="0.57" d="M11.622 6.98909C12.3771 7.00369 13.0404 7.52724 13.0404 8.28232C13.0404 9.03739 12.3771 9.72364 11.622 9.72364C10.867 9.72364 10.2412 9.1104 10.2537 8.35532C10.2662 7.58982 10.8857 6.97449 11.622 6.987V6.98909Z" fill="#D88A6D"/>
<path opacity="0.56" d="M11.6241 6.99104C12.3792 7.00564 13.0425 7.53128 13.0425 8.28636C13.0425 9.04143 12.3792 9.72559 11.6241 9.72559C10.869 9.72559 10.2433 9.11235 10.2558 8.35727C10.2683 7.59177 10.8878 6.97644 11.6241 6.98896V6.99104Z" fill="#D98C6F"/>
<path opacity="0.55" d="M11.6241 6.99397C12.3792 7.00857 13.0425 7.53421 13.0425 8.28928C13.0425 9.04436 12.3792 9.72852 11.6241 9.72852C10.869 9.72852 10.2433 9.11528 10.2558 8.3602C10.2683 7.5947 10.8857 6.97937 11.6241 6.99189V6.99397Z" fill="#D98E72"/>
<path opacity="0.55" d="M11.6262 6.99544C12.3813 7.01004 13.0425 7.53776 13.0425 8.29284C13.0425 9.04791 12.3813 9.72999 11.6262 9.72999C10.8711 9.72999 10.2454 9.11675 10.2579 8.36167C10.2704 7.59616 10.8878 6.98084 11.6262 6.99335V6.99544Z" fill="#DA9074"/>
<path opacity="0.54" d="M11.6262 6.99775C12.3813 7.01235 13.0425 7.54007 13.0425 8.29723C13.0425 9.05439 12.3813 9.73438 11.6262 9.73438C10.8711 9.73438 10.2454 9.12114 10.2579 8.36606C10.2704 7.60056 10.8878 6.98523 11.6262 6.99775Z" fill="#DB9276"/>
<path opacity="0.53" d="M11.6283 6.99983C12.3833 7.01443 13.0425 7.54424 13.0425 8.29932C13.0425 9.05439 12.3833 9.73438 11.6283 9.73438C10.8732 9.73438 10.2495 9.12114 10.26 8.36606C10.2725 7.60056 10.8899 6.98523 11.6283 6.99775V6.99983Z" fill="#DB9379"/>
<path opacity="0.52" d="M11.6283 7.00019C12.3833 7.0127 13.0425 7.54668 13.0425 8.30176C13.0425 9.05683 12.3833 9.73682 11.6283 9.73682C10.8732 9.73682 10.2495 9.12358 10.26 8.3685C10.2725 7.60508 10.8899 6.98767 11.6283 7.00019Z" fill="#DC957B"/>
<path opacity="0.51" d="M11.6303 7.00227C12.3854 7.01479 13.0446 7.54877 13.0446 8.30384C13.0446 9.05892 12.3854 9.73682 11.6303 9.73682C10.8753 9.73682 10.2516 9.12358 10.262 8.3685C10.2745 7.60508 10.892 6.98767 11.6303 7.00019V7.00227Z" fill="#DC977D"/>
<path opacity="0.5" d="M11.6324 7.00325C12.3875 7.01576 13.0445 7.55183 13.0445 8.30691C13.0445 9.06198 12.3875 9.7378 11.6324 9.7378C10.8773 9.7378 10.2537 9.12456 10.2641 8.36948C10.2766 7.60606 10.894 6.98865 11.6324 7.00116V7.00325Z" fill="#DD9980"/>
<path opacity="0.49" d="M11.6324 7.00563C12.3875 7.01815 13.0445 7.55421 13.0445 8.30929C13.0445 9.06437 12.3875 9.74018 11.6324 9.74018C10.8773 9.74018 10.2537 9.12694 10.2641 8.37187C10.2766 7.60844 10.8919 6.99312 11.6324 7.00355V7.00563Z" fill="#DE9B82"/>
<path opacity="0.48" d="M11.6346 7.00856C12.3896 7.02108 13.0446 7.55923 13.0446 8.31431C13.0446 9.06938 12.3896 9.74311 11.6346 9.74311C10.8795 9.74311 10.2558 9.12987 10.2662 8.37479C10.2767 7.61137 10.8941 6.99605 11.6346 7.00648V7.00856Z" fill="#DE9D84"/>
<path opacity="0.47" d="M11.6346 7.01003C12.3896 7.02254 13.0446 7.56069 13.0446 8.31577C13.0446 9.07085 12.3896 9.74458 11.6346 9.74458C10.8795 9.74458 10.2558 9.13134 10.2662 8.37626C10.2767 7.61284 10.8941 6.99751 11.6346 7.00794V7.01003Z" fill="#DF9F86"/>
<path opacity="0.46" d="M11.6366 7.01003C12.3917 7.02254 13.0467 7.56278 13.0467 8.31786C13.0467 9.07294 12.3917 9.74458 11.6366 9.74458C10.8816 9.74458 10.2579 9.13134 10.2683 8.37626C10.2787 7.61284 10.8962 6.99751 11.6366 7.00794V7.01003Z" fill="#DFA089"/>
<path opacity="0.45" d="M11.6366 7.01234C12.3917 7.02485 13.0446 7.56509 13.0446 8.32225C13.0446 9.07941 12.3917 9.74897 11.6366 9.74897C10.8816 9.74897 10.2579 9.13573 10.2683 8.38065C10.2787 7.61723 10.8962 7.00191 11.6366 7.01234Z" fill="#E0A28B"/>
<path opacity="0.45" d="M11.6387 7.01442C12.3938 7.02694 13.0467 7.56926 13.0467 8.32434C13.0467 9.07941 12.3938 9.74897 11.6387 9.74897C10.8836 9.74897 10.26 9.13573 10.2704 8.38065C10.2808 7.61723 10.8982 7.00191 11.6387 7.01234V7.01442Z" fill="#E1A48D"/>
<path opacity="0.44" d="M11.6387 7.01624C12.3937 7.02667 13.0466 7.57317 13.0466 8.32824C13.0466 9.08332 12.3958 9.75288 11.6387 9.75288C10.8815 9.75288 10.262 9.13964 10.2703 8.38456C10.2808 7.62114 10.8982 7.00581 11.6387 7.01624Z" fill="#E1A690"/>
<path opacity="0.43" d="M11.6408 7.01833C12.3959 7.02876 13.0467 7.57525 13.0467 8.33033C13.0467 9.08541 12.3959 9.75288 11.6408 9.75288C10.8857 9.75288 10.2641 9.13964 10.2725 8.38456C10.2829 7.62114 10.8982 7.00581 11.6408 7.01624V7.01833Z" fill="#E2A892"/>
<path opacity="0.42" d="M11.6429 7.02077C12.398 7.0312 13.0487 7.57978 13.0487 8.33486C13.0487 9.08993 12.398 9.75532 11.6429 9.75532C10.8878 9.75532 10.2662 9.14208 10.2746 8.387C10.285 7.62358 10.9003 7.00826 11.6429 7.01869V7.02077Z" fill="#E3AA94"/>
<path opacity="0.41" d="M11.6429 7.02073C12.398 7.03115 13.0467 7.57973 13.0467 8.33481C13.0467 9.08989 12.398 9.75527 11.6429 9.75527C10.8878 9.75527 10.2662 9.14203 10.2746 8.38696C10.285 7.62353 10.9003 7.0103 11.6429 7.01864V7.02073Z" fill="#E3AC97"/>
<path opacity="0.4" d="M11.6449 7.02316C12.4 7.03359 13.0487 7.58426 13.0487 8.33934C13.0487 9.09441 12.4 9.75771 11.6449 9.75771C10.8899 9.75771 10.2683 9.14447 10.2766 8.3894C10.2871 7.62806 10.9024 7.01274 11.6449 7.02108V7.02316Z" fill="#E4AD99"/>
<path opacity="0.39" d="M11.645 7.02463C12.4 7.03506 13.0487 7.58572 13.0487 8.3408C13.0487 9.09588 12.4021 9.75918 11.645 9.75918C10.8878 9.75918 10.2683 9.14594 10.2766 8.39086C10.285 7.62953 10.9024 7.0142 11.645 7.02254V7.02463Z" fill="#E4AF9B"/>
<path opacity="0.38" d="M11.6471 7.02658C12.4022 7.03701 13.0488 7.58976 13.0488 8.34484C13.0488 9.09992 12.4022 9.76113 11.6471 9.76113C10.892 9.76113 10.2704 9.14789 10.2788 8.39281C10.2871 7.63148 10.9045 7.01615 11.6471 7.0245V7.02658Z" fill="#E5B19E"/>
<path opacity="0.37" d="M11.6471 7.0284C12.4022 7.03883 13.0488 7.59367 13.0488 8.34875C13.0488 9.10382 12.4022 9.76504 11.6471 9.76504C10.892 9.76504 10.2704 9.1518 10.2788 8.39672C10.2871 7.63539 10.9045 7.02006 11.6471 7.0284Z" fill="#E6B3A0"/>
<path opacity="0.36" d="M11.6491 7.03049C12.4042 7.04092 13.0487 7.59575 13.0487 8.35083C13.0487 9.10591 12.4042 9.76504 11.6491 9.76504C10.894 9.76504 10.2724 9.1518 10.2808 8.39672C10.2891 7.63539 10.9045 7.02006 11.6491 7.0284V7.03049Z" fill="#E6B5A2"/>
<path opacity="0.35" d="M11.6512 7.03342C12.4063 7.04176 13.0508 7.60077 13.0508 8.35585C13.0508 9.11093 12.4063 9.76797 11.6512 9.76797C10.8962 9.76797 10.2746 9.15473 10.2829 8.39965C10.2913 7.63832 10.9066 7.02299 11.6512 7.03133V7.03342Z" fill="#E7B7A5"/>
<path opacity="0.35" d="M11.6512 7.03342C12.4063 7.04176 13.0508 7.60077 13.0508 8.35585C13.0508 9.11093 12.4084 9.76797 11.6512 9.76797C10.894 9.76797 10.2766 9.15473 10.2829 8.39965C10.2912 7.63832 10.9066 7.02299 11.6512 7.03133V7.03342Z" fill="#E8B9A7"/>
<path opacity="0.34" d="M11.6533 7.03537C12.4084 7.04372 13.0509 7.60481 13.0509 8.35989C13.0509 9.11496 12.4084 9.76992 11.6533 9.76992C10.8983 9.76992 10.2788 9.15668 10.285 8.4016C10.2934 7.64027 10.9087 7.02494 11.6533 7.03329V7.03537Z" fill="#E8BAA9"/>
<path opacity="0.33" d="M11.6533 7.03732C12.4084 7.04567 13.0509 7.60676 13.0509 8.36184C13.0509 9.11692 12.4084 9.77187 11.6533 9.77187C10.8983 9.77187 10.2788 9.15863 10.285 8.40356C10.2934 7.64222 10.9087 7.0269 11.6533 7.03524V7.03732Z" fill="#E9BCAC"/>
<path opacity="0.32" d="M11.6554 7.03875C12.4104 7.0471 13.0508 7.61028 13.0508 8.36536C13.0508 9.12043 12.4104 9.7733 11.6554 9.7733C10.9003 9.7733 10.2808 9.16006 10.287 8.40499C10.2954 7.64365 10.9107 7.03041 11.6554 7.03667V7.03875Z" fill="#E9BEAE"/>
<path opacity="0.31" d="M11.6554 7.04204C12.4104 7.05038 13.0508 7.61356 13.0508 8.37073C13.0508 9.12789 12.4104 9.77867 11.6554 9.77867C10.9003 9.77867 10.2808 9.16543 10.287 8.41036C10.2933 7.64902 10.9107 7.03578 11.6554 7.04204Z" fill="#EAC0B0"/>
<path opacity="0.3" d="M11.6575 7.04413C12.4126 7.05247 13.053 7.61773 13.053 8.37281C13.053 9.12789 12.4147 9.77867 11.6575 9.77867C10.9004 9.77867 10.283 9.16543 10.2892 8.41036C10.2955 7.64902 10.9108 7.03578 11.6575 7.04204V7.04413Z" fill="#EBC2B3"/>
<path opacity="0.29" d="M11.6575 7.0435C12.4126 7.05185 13.0509 7.6192 13.0509 8.37428C13.0509 9.12935 12.4126 9.78014 11.6575 9.78014C10.9025 9.78014 10.283 9.1669 10.2892 8.41182C10.2955 7.65049 10.9108 7.03725 11.6575 7.0435Z" fill="#EBC4B5"/>
<path opacity="0.28" d="M11.6596 7.04559C12.4146 7.05393 13.0529 7.62128 13.0529 8.37636C13.0529 9.13144 12.4146 9.78014 11.6596 9.78014C10.9045 9.78014 10.285 9.1669 10.2912 8.41182C10.2975 7.65257 10.9128 7.03725 11.6596 7.0435V7.04559Z" fill="#ECC6B7"/>
<path opacity="0.27" d="M11.6616 7.04754C12.4167 7.0538 13.0529 7.62532 13.0529 8.3804C13.0529 9.13548 12.4167 9.78209 11.6616 9.78209C10.9066 9.78209 10.2871 9.16885 10.2933 8.41378C10.2996 7.65453 10.9149 7.0392 11.6616 7.04546V7.04754Z" fill="#ECC7B9"/>
<path opacity="0.26" d="M11.6616 7.04999C12.4167 7.05624 13.0529 7.62777 13.0529 8.38284C13.0529 9.13792 12.4167 9.78453 11.6616 9.78453C10.9066 9.78453 10.2871 9.17129 10.2933 8.41622C10.2996 7.65697 10.9149 7.04164 11.6616 7.0479V7.04999Z" fill="#EDC9BC"/>
<path opacity="0.25" d="M11.6638 7.05145C12.4189 7.05771 13.0551 7.63131 13.0551 8.38639C13.0551 9.14147 12.4189 9.786 11.6638 9.786C10.9087 9.786 10.2913 9.17276 10.2955 8.41768C10.3017 7.65843 10.9171 7.04311 11.6638 7.04936V7.05145Z" fill="#EECBBE"/>
<path opacity="0.25" d="M11.6638 7.05389C12.4189 7.06015 13.053 7.63376 13.053 8.38883C13.053 9.14391 12.4189 9.78844 11.6638 9.78844C10.9087 9.78844 10.2913 9.1752 10.2955 8.42012C10.3017 7.66087 10.915 7.04555 11.6638 7.05181V7.05389Z" fill="#EECDC0"/>
<path opacity="0.24" d="M11.6658 7.05386C12.4209 7.06012 13.055 7.63582 13.055 8.39089C13.055 9.14597 12.4209 9.78841 11.6658 9.78841C10.9107 9.78841 10.2933 9.17517 10.2975 8.4201C10.3038 7.66085 10.917 7.04761 11.6658 7.05178V7.05386Z" fill="#EFCFC3"/>
<path opacity="0.23" d="M11.6658 7.05666C12.4209 7.06292 13.0529 7.6407 13.0529 8.39578C13.0529 9.15085 12.4209 9.7933 11.6658 9.7933C10.9107 9.7933 10.2933 9.18006 10.2975 8.42498C10.3038 7.66573 10.917 7.05249 11.6658 7.05666Z" fill="#F0D1C5"/>
<path opacity="0.22" d="M11.6679 7.05875C12.423 7.06501 13.055 7.64279 13.055 8.39786C13.055 9.15294 12.423 9.7933 11.6679 9.7933C10.9128 9.7933 10.2954 9.18006 10.2996 8.42498C10.3038 7.66573 10.9191 7.05249 11.6679 7.05666V7.05875Z" fill="#F0D2C7"/>
<path opacity="0.21" d="M11.6679 7.06008C12.423 7.06634 13.055 7.6462 13.055 8.40128C13.055 9.15636 12.423 9.79671 11.6679 9.79671C10.9128 9.79671 10.2954 9.18348 10.2996 8.4284C10.3038 7.66915 10.9191 7.05591 11.6679 7.06008Z" fill="#F1D4CA"/>
<path opacity="0.2" d="M11.67 7.06217C12.4251 7.06842 13.055 7.64829 13.055 8.40337C13.055 9.15844 12.4251 9.79671 11.67 9.79671C10.915 9.79671 10.2975 9.18348 10.3017 8.4284C10.3059 7.66915 10.9212 7.05591 11.67 7.06008V7.06217Z" fill="#F1D6CC"/>
<path opacity="0.19" d="M11.672 7.06461C12.4271 7.06878 13.0571 7.65282 13.0571 8.40789C13.0571 9.16297 12.4271 9.79916 11.672 9.79916C10.917 9.79916 10.2996 9.18592 10.3037 8.43084C10.3079 7.67159 10.9232 7.05835 11.672 7.06252V7.06461Z" fill="#F2D8CE"/>
<path opacity="0.18" d="M11.672 7.06461C12.4271 7.06878 13.055 7.65282 13.055 8.40789C13.055 9.16297 12.4271 9.79916 11.672 9.79916C10.917 9.79916 10.2996 9.18592 10.3037 8.43084C10.3079 7.67159 10.9211 7.05835 11.672 7.06252V7.06461Z" fill="#F3DAD1"/>
<path opacity="0.17" d="M11.6742 7.06656C12.4293 7.07073 13.0571 7.65686 13.0571 8.41193C13.0571 9.16701 12.4293 9.80111 11.6742 9.80111C10.9191 9.80111 10.3017 9.18787 10.3059 8.43279C10.31 7.67354 10.9233 7.0603 11.6742 7.06447V7.06656Z" fill="#F3DCD3"/>
<path opacity="0.16" d="M11.6742 7.06887C12.4292 7.07304 13.0571 7.65916 13.0571 8.41633C13.0571 9.17349 12.4292 9.8055 11.6742 9.8055C10.9191 9.8055 10.3038 9.19226 10.3059 8.43719C10.31 7.68002 10.9233 7.0647 11.6742 7.06887Z" fill="#F4DED5"/>
<path opacity="0.15" d="M11.6763 7.07094C12.4314 7.07511 13.0571 7.66332 13.0571 8.4184C13.0571 9.17347 12.4314 9.80549 11.6763 9.80549C10.9212 9.80549 10.3059 9.19225 10.308 8.43717C10.3122 7.68001 10.9254 7.06677 11.6763 7.06885V7.07094Z" fill="#F4DFD8"/>
<path opacity="0.15" d="M11.6763 7.07276C12.4314 7.07693 13.0571 7.66723 13.0571 8.4223C13.0571 9.17738 12.4314 9.80939 11.6763 9.80939C10.9212 9.80939 10.3059 9.19615 10.308 8.44108C10.3122 7.68391 10.9254 7.07067 11.6763 7.07276Z" fill="#F5E1DA"/>
<path opacity="0.14" d="M11.6783 7.07484C12.4334 7.07902 13.0592 7.66931 13.0592 8.42439C13.0592 9.17947 12.4355 9.80939 11.6783 9.80939C10.9212 9.80939 10.3079 9.19615 10.31 8.44108C10.3142 7.68391 10.9274 7.07067 11.6783 7.07276V7.07484Z" fill="#F6E3DC"/>
<path opacity="0.13" d="M11.6783 7.07484C12.4334 7.07902 13.0571 7.6714 13.0571 8.42647C13.0571 9.18155 12.4334 9.80939 11.6783 9.80939C10.9232 9.80939 10.3079 9.19615 10.31 8.44108C10.3121 7.68391 10.9274 7.07067 11.6783 7.07276V7.07484Z" fill="#F6E5DF"/>
<path opacity="0.12" d="M11.6804 7.0768C12.4355 7.07888 13.0591 7.67335 13.0591 8.42843C13.0591 9.18351 12.4355 9.81135 11.6804 9.81135C10.9253 9.81135 10.31 9.19811 10.3121 8.44303C10.3142 7.68587 10.9274 7.07263 11.6804 7.07471V7.0768Z" fill="#F7E7E1"/>
<path opacity="0.11" d="M11.6825 7.07924C12.4375 7.08133 13.0591 7.67788 13.0591 8.43296C13.0591 9.18803 12.4375 9.81379 11.6825 9.81379C10.9274 9.81379 10.3121 9.20055 10.3142 8.44547C10.3162 7.68831 10.9295 7.07507 11.6825 7.07715V7.07924Z" fill="#F8E9E3"/>
<path opacity="0.1" d="M11.6825 7.0807C12.4375 7.08279 13.0591 7.67934 13.0591 8.43442C13.0591 9.1895 12.4375 9.81525 11.6825 9.81525C10.9274 9.81525 10.3121 9.20201 10.3142 8.44693C10.3162 7.68977 10.9295 7.07653 11.6825 7.07862V7.0807Z" fill="#F8EBE6"/>
<path opacity="0.09" d="M11.6846 7.08314C12.4397 7.08523 13.0613 7.68387 13.0613 8.43895C13.0613 9.19402 12.4418 9.81769 11.6846 9.81769C10.9274 9.81769 10.3142 9.20445 10.3163 8.44938C10.3184 7.69221 10.9316 7.07897 11.6846 7.08106V7.08314Z" fill="#F9ECE8"/>
<path opacity="0.08" d="M11.6846 7.08497C12.4397 7.08705 13.0592 7.68569 13.0592 8.44285C13.0592 9.20002 12.4397 9.8216 11.6846 9.8216C10.9295 9.8216 10.3163 9.20836 10.3163 8.45328C10.3163 7.69612 10.9316 7.08288 11.6846 7.08497Z" fill="#F9EEEA"/>
<path opacity="0.07" d="M11.6866 7.08705C12.4417 7.08705 13.0612 7.68986 13.0612 8.44493C13.0612 9.20001 12.4417 9.8216 11.6866 9.8216C10.9315 9.8216 10.3183 9.20835 10.3183 8.45328C10.3183 7.69611 10.9336 7.08496 11.6866 7.08496V7.08705Z" fill="#FAF0EC"/>
<path opacity="0.06" d="M11.6866 7.08691C12.4417 7.08691 13.0591 7.69181 13.0591 8.44689C13.0591 9.20196 12.4417 9.82355 11.6866 9.82355C10.9315 9.82355 10.3183 9.21031 10.3183 8.45523C10.3183 7.69807 10.9336 7.08691 11.6866 7.08691Z" fill="#FBF2EF"/>
<path opacity="0.05" d="M11.6888 7.089C12.4438 7.089 13.0612 7.6939 13.0612 8.44897C13.0612 9.20405 12.4438 9.82355 11.6888 9.82355C10.9337 9.82355 10.3204 9.21031 10.3204 8.45523C10.3204 7.69807 10.9337 7.08691 11.6888 7.08691V7.089Z" fill="#FBF4F1"/>
<path opacity="0.05" d="M11.6909 7.09193C12.446 7.09193 13.0634 7.69891 13.0634 8.45399C13.0634 9.20907 12.4481 9.82648 11.6909 9.82648C10.9337 9.82648 10.3226 9.21324 10.3226 8.45816C10.3226 7.70308 10.9358 7.08984 11.6909 7.08984V7.09193Z" fill="#FCF6F3"/>
<path opacity="0.04" d="M11.6909 7.09339C12.446 7.09339 13.0613 7.70038 13.0613 8.45545C13.0613 9.21053 12.446 9.82794 11.6909 9.82794C10.9358 9.82794 10.3226 9.2147 10.3226 8.45963C10.3226 7.70455 10.9358 7.09131 11.6909 7.09131V7.09339Z" fill="#FDF8F6"/>
<path opacity="0.03" d="M11.6929 7.09535C12.448 7.09535 13.0633 7.70442 13.0633 8.45949C13.0633 9.21457 12.448 9.8299 11.6929 9.8299C10.9378 9.8299 10.3246 9.21666 10.3246 8.46158C10.3246 7.7065 10.9378 7.09326 11.6929 7.09326V7.09535Z" fill="#FDF9F8"/>
<path opacity="0.02" d="M11.6929 7.09779C12.448 7.09779 13.0612 7.70686 13.0612 8.46193C13.0612 9.21701 12.448 9.83234 11.6929 9.83234C10.9378 9.83234 10.3246 9.2191 10.3246 8.46402C10.3246 7.70894 10.9378 7.0957 11.6929 7.0957V7.09779Z" fill="#FEFBFA"/>
</g>
</g>
<mask id="mask1_1284_69236" style="mask-type:luminance" maskUnits="userSpaceOnUse" x="2" y="2" width="19" height="13">
<path d="M20.3763 2H2.62575C2.2795 2 2 2.2795 2 2.62575V13.5264C2 13.8727 2.2795 14.1522 2.62575 14.1522H20.3742C20.7205 14.1522 21 13.8727 21 13.5264V2.62575C21 2.2795 20.7205 2 20.3742 2H20.3763ZM20.0676 8.07608C20.0676 11.3154 17.4415 13.9436 14.2001 13.9436H2.62575C2.39631 13.9436 2.20858 13.7558 2.20858 13.5264V2.62575C2.20858 2.39631 2.39631 2.20858 2.62575 2.20858H14.198C17.4374 2.20858 20.0655 4.83467 20.0655 8.07608H20.0676Z" fill="white"/>
</mask>
<g mask="url(#mask1_1284_69236)">
<mask id="mask2_1284_69236" style="mask-type:luminance" maskUnits="userSpaceOnUse" x="0" y="-4" width="23" height="24">
<path d="M11.5094 19.3485C17.7347 19.3485 22.7813 14.3019 22.7813 8.07662C22.7813 1.8513 17.7347 -3.19531 11.5094 -3.19531C5.2841 -3.19531 0.237488 1.8513 0.237488 8.07662C0.237488 14.3019 5.2841 19.3485 11.5094 19.3485Z" fill="white"/>
</mask>
<g mask="url(#mask2_1284_69236)">
<path d="M15.6334 -7.3202L-3.88831 3.95068L7.38258 23.4724L26.9043 12.2015L15.6334 -7.3202Z" fill="#E04E15"/>
<path d="M15.8681 -6.91395L-3.65369 4.35693L7.6172 23.8787L27.1389 12.6078L15.8681 -6.91395Z" fill="#E04F15"/>
<path d="M16.1025 -6.50819L-3.41925 4.7627L7.85164 24.2844L27.3734 13.0136L16.1025 -6.50819Z" fill="#E15015"/>
<path d="M16.336 -6.10145L-3.18573 5.16943L8.08516 24.6912L27.6069 13.4203L16.336 -6.10145Z" fill="#E15115"/>
<path d="M16.5725 -5.69618L-2.94922 5.57471L8.32167 25.0965L27.8434 13.8256L16.5725 -5.69618Z" fill="#E25215"/>
<path d="M16.8051 -5.28944L-2.71667 5.98145L8.55421 25.5032L28.076 14.2323L16.8051 -5.28944Z" fill="#E25316"/>
<path d="M17.0415 -4.88173L-2.48022 6.38916L8.79066 25.9109L28.3124 14.64L17.0415 -4.88173Z" fill="#E35416"/>
<path d="M17.2761 -4.47596L-2.24561 6.79492L9.02528 26.3167L28.547 15.0458L17.2761 -4.47596Z" fill="#E35516"/>
<path d="M17.5105 -4.06825L-2.01123 7.20264L9.25966 26.7244L28.7814 15.4535L17.5105 -4.06825Z" fill="#E35616"/>
<path d="M17.7441 -3.66395L-1.77765 7.60693L9.49324 27.1287L29.015 15.8578L17.7441 -3.66395Z" fill="#E45716"/>
<path d="M17.9806 -3.25819L-1.54114 8.0127L9.72975 27.5344L29.2515 16.2636L17.9806 -3.25819Z" fill="#E45716"/>
<path d="M18.2132 -2.8495L-1.30859 8.42139L9.96229 27.9431L29.484 16.6722L18.2132 -2.8495Z" fill="#E55816"/>
<path d="M18.4496 -2.44374L-1.07214 8.82715L10.1987 28.3489L29.7205 17.078L18.4496 -2.44374Z" fill="#E55916"/>
<path d="M18.6842 -2.03798L-0.837524 9.23291L10.4334 28.7547L29.9551 17.4838L18.6842 -2.03798Z" fill="#E55A16"/>
<path d="M18.9186 -1.63026L-0.603149 9.64062L10.6677 29.1624L30.1895 17.8915L18.9186 -1.63026Z" fill="#E65B16"/>
<path d="M19.1533 -1.22352L-0.368469 10.0474L10.9024 29.5691L30.4242 18.2982L19.1533 -1.22352Z" fill="#E65C17"/>
<path d="M19.3887 -0.820204L-0.133057 10.4507L11.1378 29.9724L30.6596 18.7015L19.3887 -0.820204Z" fill="#E75D17"/>
<path d="M19.6212 -0.411023L0.0994873 10.8599L11.3704 30.3816L30.8921 19.1107L19.6212 -0.411023Z" fill="#E75E17"/>
<path d="M19.8576 -0.00575066L0.335876 11.2651L11.6068 30.7869L31.1285 19.516L19.8576 -0.00575066Z" fill="#E85F17"/>
<path d="M20.0924 0.400989L0.570618 11.6719L11.8415 31.1936L31.3632 19.9227L20.0924 0.400989Z" fill="#E86017"/>
<path d="M20.1832 0.556261L0.661499 11.8271L11.9324 31.3489L31.4541 20.078L20.1832 0.556261Z" fill="#E86117"/>
<path d="M20.2735 0.715932L0.751709 11.9868L12.0226 31.5086L31.5443 20.2377L20.2735 0.715932Z" fill="#E96217"/>
<path d="M20.3645 0.87218L0.842712 12.1431L12.1136 31.6648L31.6353 20.3939L20.3645 0.87218Z" fill="#E96317"/>
<path d="M20.4535 1.02989L0.931763 12.3008L12.2027 31.8225L31.7244 20.5516L20.4535 1.02989Z" fill="#E96418"/>
<path d="M20.5455 1.1881L1.0238 12.459L12.2947 31.9807L31.8164 20.7098L20.5455 1.1881Z" fill="#E96518"/>
<path d="M20.6368 1.34288L1.11505 12.6138L12.3859 32.1355L31.9077 20.8646L20.6368 1.34288Z" fill="#EA6618"/>
<path d="M20.7277 1.49962L1.20599 12.7705L12.4769 32.2923L31.9986 21.0214L20.7277 1.49962Z" fill="#EA6718"/>
<path d="M20.817 1.65734L1.29523 12.9282L12.5661 32.45L32.0879 21.1791L20.817 1.65734Z" fill="#EA6818"/>
<path d="M20.909 1.81456L1.38721 13.0854L12.6581 32.6072L32.1798 21.3363L20.909 1.81456Z" fill="#EA6918"/>
<path d="M20.9981 1.97228L1.47632 13.2432L12.7472 32.7649L32.269 21.494L20.9981 1.97228Z" fill="#EB6A18"/>
<path d="M21.089 2.12902L1.56726 13.3999L12.8381 32.9216L32.3599 21.6508L21.089 2.12902Z" fill="#EB6B19"/>
<path d="M21.1793 2.28624L1.65753 13.5571L12.9284 33.0789L32.4502 21.808L21.1793 2.28624Z" fill="#EB6C19"/>
<path d="M21.2722 2.442L1.75049 13.7129L13.0214 33.2346L32.5431 21.9638L21.2722 2.442Z" fill="#EB6D19"/>
<path d="M21.3613 2.59972L1.8396 13.8706L13.1105 33.3924L32.6322 22.1215L21.3613 2.59972Z" fill="#EC6E19"/>
<path d="M21.4533 2.75792L1.93158 14.0288L13.2025 33.5506L32.7242 22.2797L21.4533 2.75792Z" fill="#EC6F19"/>
<path d="M21.5426 2.91515L2.02081 14.186L13.2917 33.7078L32.8134 22.4369L21.5426 2.91515Z" fill="#EC7019"/>
<path d="M21.6335 3.0714L2.11176 14.3423L13.3826 33.864L32.9044 22.5931L21.6335 3.0714Z" fill="#EC7119"/>
<path d="M21.7237 3.22862L2.2019 14.4995L13.4728 34.0213L32.9945 22.7504L21.7237 3.22862Z" fill="#ED7219"/>
<path d="M21.8168 3.38439L2.29504 14.6553L13.5659 34.177L33.0877 22.9061L21.8168 3.38439Z" fill="#ED731A"/>
<path d="M21.9058 3.54259L2.38409 14.8135L13.655 34.3352L33.1767 23.0643L21.9058 3.54259Z" fill="#ED741A"/>
<path d="M21.9961 3.70128L2.4743 14.9722L13.7452 34.4939L33.2669 23.223L21.9961 3.70128Z" fill="#ED751A"/>
<path d="M22.087 3.85802L2.56525 15.1289L13.8361 34.6507L33.3579 23.3798L22.087 3.85802Z" fill="#EE761A"/>
<path d="M22.1761 4.01525L2.65436 15.2861L13.9252 34.8079L33.447 23.537L22.1761 4.01525Z" fill="#EE771A"/>
<path d="M22.2681 4.1715L2.7464 15.4424L14.0173 34.9641L33.539 23.6932L22.2681 4.1715Z" fill="#EE781A"/>
<path d="M22.3594 4.32775L2.83765 15.5986L14.1085 35.1204L33.6303 23.8495L22.3594 4.32775Z" fill="#EF791A"/>
<path d="M22.4503 4.48497L2.92859 15.7559L14.1995 35.2776L33.7212 24.0067L22.4503 4.48497Z" fill="#EF7A1B"/>
<path d="M22.5405 4.64415L3.0188 15.915L14.2897 35.4368L33.8114 24.1659L22.5405 4.64415Z" fill="#EF7B1B"/>
<path d="M22.6315 4.8004L3.1098 16.0713L14.3807 35.593L33.9024 24.3222L22.6315 4.8004Z" fill="#EF7C1B"/>
<path d="M22.7207 4.95812L3.19891 16.229L14.4698 35.7508L33.9916 24.4799L22.7207 4.95812Z" fill="#F07D1B"/>
<path d="M22.8126 5.11388L3.29083 16.3848L14.5617 35.9065L34.0835 24.6356L22.8126 5.11388Z" fill="#F07E1B"/>
<path d="M22.9038 5.27111L3.38208 16.542L14.653 36.0637L34.1747 24.7929L22.9038 5.27111Z" fill="#F07F1B"/>
<path d="M22.9948 5.42736L3.47302 16.6982L14.7439 36.22L34.2657 24.9491L22.9948 5.42736Z" fill="#F0801B"/>
<path d="M23.085 5.58702L3.56323 16.8579L14.8341 36.3797L34.3559 25.1088L23.085 5.58702Z" fill="#F1801C"/>
<path d="M23.1759 5.74279L3.65417 17.0137L14.9251 36.5354L34.4468 25.2645L23.1759 5.74279Z" fill="#F1811C"/>
<path d="M23.2651 5.9005L3.74335 17.1714L15.0142 36.6931L34.536 25.4222L23.2651 5.9005Z" fill="#F1821C"/>
<path d="M23.3571 6.05626L3.83533 17.3271L15.1062 36.8489L34.628 25.578L23.3571 6.05626Z" fill="#F1831C"/>
<path d="M23.4483 6.21447L3.92657 17.4854L15.1975 37.0071L34.7192 25.7362L23.4483 6.21447Z" fill="#F2841C"/>
<path d="M23.5393 6.37023L4.01752 17.6411L15.2884 37.1629L34.8102 25.892L23.5393 6.37023Z" fill="#F2851C"/>
<path d="M23.6295 6.52941L4.10779 17.8003L15.3787 37.322L34.9004 26.0512L23.6295 6.52941Z" fill="#F2861C"/>
<path d="M23.7204 6.68566L4.19867 17.9565L15.4696 37.4783L34.9913 26.2074L23.7204 6.68566Z" fill="#F2871D"/>
<path d="M23.8095 6.84337L4.28778 18.1143L15.5587 37.636L35.0804 26.3651L23.8095 6.84337Z" fill="#F3881D"/>
<path d="M23.9005 6.99767L4.37878 18.2686L15.6497 37.7903L35.1714 26.5194L23.9005 6.99767Z" fill="#F3891D"/>
<path d="M23.9928 7.15685L4.47107 18.4277L15.742 37.9495L35.2637 26.6786L23.9928 7.15685Z" fill="#F38A1D"/>
<path d="M24.0838 7.3131L4.56201 18.584L15.8329 38.1057L35.3546 26.8348L24.0838 7.3131Z" fill="#F48B1D"/>
<path d="M24.1729 7.47033L4.65118 18.7412L15.9221 38.263L35.4438 26.9921L24.1729 7.47033Z" fill="#F48C1D"/>
<path d="M24.2648 7.62902L4.7431 18.8999L16.014 38.4217L35.5357 27.1508L24.2648 7.62902Z" fill="#F48D1D"/>
<path d="M24.3541 7.78575L4.83234 19.0566L16.1032 38.5784L35.625 27.3075L24.3541 7.78575Z" fill="#F48E1E"/>
<path d="M24.445 7.94005L4.92328 19.2109L16.1942 38.7327L35.7159 27.4618L24.445 7.94005Z" fill="#F58F1E"/>
<path d="M24.5373 8.09923L5.01556 19.3701L16.2865 38.8919L35.8082 27.621L24.5373 8.09923Z" fill="#F5901E"/>
<path d="M24.6282 8.25548L5.10645 19.5264L16.3773 39.0481L35.8991 27.7772L24.6282 8.25548Z" fill="#F5911E"/>
<path d="M24.7174 8.4132L5.19562 19.6841L16.4665 39.2058L35.9882 27.9349L24.7174 8.4132Z" fill="#F5921E"/>
<path d="M24.8093 8.57091L5.2876 19.8418L16.5585 39.3635L36.0802 28.0927L24.8093 8.57091Z" fill="#F6931E"/>
<path d="M24.8986 8.72862L5.37683 19.9995L16.6477 39.5213L36.1695 28.2504L24.8986 8.72862Z" fill="#F6941E"/>
<path d="M24.9895 8.88292L5.46771 20.1538L16.7386 39.6756L36.2603 28.4047L24.9895 8.88292Z" fill="#F6951E"/>
<path d="M25.0818 9.0421L5.56006 20.313L16.8309 39.8347L36.3527 28.5638L25.0818 9.0421Z" fill="#F6961F"/>
<path d="M25.1727 9.19835L5.65094 20.4692L16.9218 39.991L36.4436 28.7201L25.1727 9.19835Z" fill="#F7971F"/>
<path d="M25.2619 9.35607L5.74011 20.627L17.011 40.1487L36.5327 28.8778L25.2619 9.35607Z" fill="#F7981F"/>
<path d="M25.3539 9.51329L5.83215 20.7842L17.103 40.3059L36.6248 29.035L25.3539 9.51329Z" fill="#F7991F"/>
<path d="M25.443 9.67101L5.92126 20.9419L17.1922 40.4636L36.7139 29.1928L25.443 9.67101Z" fill="#F79A1F"/>
<path d="M25.5339 9.8253L6.01215 21.0962L17.283 40.6179L36.8048 29.3471L25.5339 9.8253Z" fill="#F89B1F"/>
<path d="M25.6262 9.98448L6.10443 21.2554L17.3753 40.7771L36.8971 29.5062L25.6262 9.98448Z" fill="#F89C1F"/>
<path d="M25.7172 10.1412L6.19543 21.4121L17.4663 40.9339L36.9881 29.663L25.7172 10.1412Z" fill="#F89D20"/>
<path d="M25.8063 10.298L6.28455 21.5688L17.5554 41.0906L37.0772 29.8197L25.8063 10.298Z" fill="#F89E20"/>
<path d="M25.8965 10.4576L6.37476 21.7285L17.6456 41.2503L37.1674 29.9794L25.8965 10.4576Z" fill="#F99F20"/>
<path d="M25.9874 10.6139L6.46564 21.8848L17.7365 41.4065L37.2583 30.1356L25.9874 10.6139Z" fill="#F9A020"/>
</g>
</g>
<defs>
<linearGradient id="paint0_linear_1284_69236" x1="12.0997" y1="9.14015" x2="11.1527" y2="7.65919" gradientUnits="userSpaceOnUse">
<stop stop-color="#FF9200"/>
<stop offset="0.21" stop-color="#FF8D00"/>
<stop offset="0.45" stop-color="#FF7F00"/>
<stop offset="0.62" stop-color="#FF7100"/>
<stop offset="0.82" stop-color="#FF5E00"/>
<stop offset="1" stop-color="#FF5200"/>
</linearGradient>
<linearGradient id="paint1_linear_1284_69236" x1="11.9495" y1="9.12137" x2="10.5666" y2="6.41603" gradientUnits="userSpaceOnUse">
<stop stop-color="#FF7100" stop-opacity="0"/>
<stop offset="0.03" stop-color="#FF6D00" stop-opacity="0.03"/>
<stop offset="0.21" stop-color="#FF5900" stop-opacity="0.25"/>
<stop offset="0.39" stop-color="#FF4800" stop-opacity="0.42"/>
<stop offset="0.56" stop-color="#FF3B00" stop-opacity="0.56"/>
<stop offset="0.72" stop-color="#FF3200" stop-opacity="0.66"/>
<stop offset="0.86" stop-color="#FF2C00" stop-opacity="0.72"/>
<stop offset="0.98" stop-color="#FF2B00" stop-opacity="0.74"/>
</linearGradient>
</defs>
</svg>
