<svg width="16" height="16" viewBox="0 0 16 16" fill="none" xmlns="http://www.w3.org/2000/svg">
<circle cx="8" cy="8" r="8" fill="#1C1C1C"/>
<path d="M7.08967 12.5V5.95455H8.90501V12.5H7.08967ZM8.0016 5.1108C7.73171 5.1108 7.50018 5.02131 7.307 4.84233C7.11665 4.66051 7.02148 4.44318 7.02148 4.19034C7.02148 3.94034 7.11665 3.72585 7.307 3.54688C7.50018 3.36506 7.73171 3.27415 8.0016 3.27415C8.27148 3.27415 8.5016 3.36506 8.69194 3.54688C8.88512 3.72585 8.98171 3.94034 8.98171 4.19034C8.98171 4.44318 8.88512 4.66051 8.69194 4.84233C8.5016 5.02131 8.27148 5.1108 8.0016 5.1108Z" fill="white"/>
</svg>
