<svg width="23" height="16" viewBox="0 0 23 16" fill="none" xmlns="http://www.w3.org/2000/svg">
<rect x="0.5" y="0.5" width="22" height="15" rx="2" fill="white" stroke="#F1F0F3"/>
<path d="M17.0659 2C15.967 2 15.0659 2.89011 15.0659 4V6.07692H17.8901C17.956 6.07692 18.033 6.07692 18.0879 6.08791C18.7253 6.12088 19.1978 6.45055 19.1978 7.02198C19.1978 7.47253 18.8791 7.85714 18.2857 7.93407V7.95604C18.9341 8 19.4286 8.36264 19.4286 8.92308C19.4286 9.52747 18.8791 9.92308 18.1538 9.92308H15.0549V13.989H17.989C19.0879 13.989 19.989 13.0989 19.989 11.989V2H17.0659Z" fill="url(#paint0_linear_1347_69440)"/>
<path d="M16.0439 9.28571H17.1978C17.2143 9.28571 17.2417 9.28296 17.2692 9.28021C17.2967 9.27746 17.3242 9.27472 17.3406 9.27472C17.5604 9.23076 17.7472 9.03296 17.7472 8.75823C17.7472 8.4945 17.5604 8.29669 17.3406 8.24175C17.3077 8.23076 17.2417 8.23076 17.1978 8.23076H16.0439V9.28571Z" fill="url(#paint1_linear_1347_69440)"/>
<path d="M17.1978 6.68131C17.4176 6.71428 17.6044 6.89011 17.6044 7.15384C17.6044 7.41758 17.4176 7.5934 17.1978 7.62637C17.1868 7.63736 17.1209 7.63736 17.0879 7.63736H16.0439V6.67033H17.0879C17.106 6.67033 17.1309 6.67366 17.1532 6.67665C17.1714 6.67909 17.1879 6.68131 17.1978 6.68131Z" fill="url(#paint2_linear_1347_69440)"/>
<path d="M6.01099 2C4.91209 2 4.01099 2.89011 4.01099 4V8.93407C4.57143 9.20879 5.15385 9.38462 5.73626 9.38462C6.42857 9.38462 6.8022 8.96703 6.8022 8.39561V6.06593H8.51648V8.38462C8.51648 9.28572 7.95604 10.022 6.05495 10.022C4.9011 10.022 4 9.76923 4 9.76923V13.978H6.93407C8.03297 13.978 8.93407 13.0879 8.93407 11.978V2H6.01099Z" fill="url(#paint3_linear_1347_69440)"/>
<path d="M11.5384 2C10.4395 2 9.53839 2.89011 9.53839 4V6.61538C10.0439 6.18681 10.923 5.91209 12.3406 5.97802C13.0988 6.01099 13.912 6.21978 13.912 6.21978V7.06593C13.5054 6.85714 13.0219 6.67033 12.3955 6.62637C11.3186 6.54945 10.6703 7.07692 10.6703 8C10.6703 8.93407 11.3186 9.46154 12.3955 9.37363C13.0219 9.32967 13.5054 9.13187 13.912 8.93407V9.78022C13.912 9.78022 13.1098 9.98901 12.3406 10.022C10.923 10.0879 10.0439 9.81319 9.53839 9.38462V14H12.4725C13.5714 14 14.4725 13.1099 14.4725 12V2H11.5384Z" fill="url(#paint4_linear_1347_69440)"/>
<defs>
<linearGradient id="paint0_linear_1347_69440" x1="15.0638" y1="7.15219" x2="20.0021" y2="7.15219" gradientUnits="userSpaceOnUse">
<stop stop-color="#007940"/>
<stop offset="0.2285" stop-color="#00873F"/>
<stop offset="0.7433" stop-color="#40A737"/>
<stop offset="1" stop-color="#5CB531"/>
</linearGradient>
<linearGradient id="paint1_linear_1347_69440" x1="15.0638" y1="7.15219" x2="20.0021" y2="7.15219" gradientUnits="userSpaceOnUse">
<stop stop-color="#007940"/>
<stop offset="0.2285" stop-color="#00873F"/>
<stop offset="0.7433" stop-color="#40A737"/>
<stop offset="1" stop-color="#5CB531"/>
</linearGradient>
<linearGradient id="paint2_linear_1347_69440" x1="15.0638" y1="7.15219" x2="20.0021" y2="7.15219" gradientUnits="userSpaceOnUse">
<stop stop-color="#007940"/>
<stop offset="0.2285" stop-color="#00873F"/>
<stop offset="0.7433" stop-color="#40A737"/>
<stop offset="1" stop-color="#5CB531"/>
</linearGradient>
<linearGradient id="paint3_linear_1347_69440" x1="4.00849" y1="7.98951" x2="9.02323" y2="7.98951" gradientUnits="userSpaceOnUse">
<stop stop-color="#1F286F"/>
<stop offset="0.4751" stop-color="#004E94"/>
<stop offset="0.8261" stop-color="#0066B1"/>
<stop offset="1" stop-color="#006FBC"/>
</linearGradient>
<linearGradient id="paint4_linear_1347_69440" x1="9.50983" y1="7.98951" x2="14.3801" y2="7.98951" gradientUnits="userSpaceOnUse">
<stop stop-color="#6C2C2F"/>
<stop offset="0.1735" stop-color="#882730"/>
<stop offset="0.5731" stop-color="#BE1833"/>
<stop offset="0.8585" stop-color="#DC0436"/>
<stop offset="1" stop-color="#E60039"/>
</linearGradient>
</defs>
</svg>
