<svg width="23" height="16" viewBox="0 0 23 16" fill="none" xmlns="http://www.w3.org/2000/svg">
<rect x="0.5" y="0.5" width="22" height="15" rx="2" fill="white" stroke="#F1F0F3"/>
<path d="M13.2765 7.945C13.2765 10.676 11.088 12.89 8.38825 12.89C5.68855 12.89 3.5 10.676 3.5 7.945C3.5 5.21395 5.68855 3 8.38825 3C11.088 3 13.2765 5.21395 13.2765 7.945Z" fill="#ED0006"/>
<path d="M19.6181 7.945C19.6181 10.676 17.4295 12.89 14.7298 12.89C12.0301 12.89 9.84155 10.676 9.84155 7.945C9.84155 5.21395 12.0301 3 14.7298 3C17.4295 3 19.6181 5.21395 19.6181 7.945Z" fill="#0099DF"/>
<path fill-rule="evenodd" clip-rule="evenodd" d="M11.559 11.7085C12.61 10.8015 13.2765 9.4519 13.2765 7.94483C13.2765 6.43776 12.61 5.08816 11.559 4.18115C10.508 5.08816 9.84155 6.43776 9.84155 7.94483C9.84155 9.4519 10.508 10.8015 11.559 11.7085Z" fill="#6C6BBD"/>
</svg>
